%TF.GenerationSoftware,KiCad,Pcbnew,10.0.3*%
%TF.CreationDate,2026-07-09T00:15:10-04:00*%
%TF.ProjectId,devboard,64657662-6f61-4726-942e-6b696361645f,rev?*%
%TF.SameCoordinates,Original*%
%TF.FileFunction,Paste,Top*%
%TF.FilePolarity,Positive*%
%FSLAX46Y46*%
G04 Gerber Fmt 4.6, Leading zero omitted, Abs format (unit mm)*
G04 Created by KiCad (PCBNEW 10.0.3) date 2026-07-09 00:15:10*
%MOMM*%
%LPD*%
G01*
G04 APERTURE LIST*
G04 Aperture macros list*
%AMRoundRect*
0 Rectangle with rounded corners*
0 $1 Rounding radius*
0 $2 $3 $4 $5 $6 $7 $8 $9 X,Y pos of 4 corners*
0 Add a 4 corners polygon primitive as box body*
4,1,4,$2,$3,$4,$5,$6,$7,$8,$9,$2,$3,0*
0 Add four circle primitives for the rounded corners*
1,1,$1+$1,$2,$3*
1,1,$1+$1,$4,$5*
1,1,$1+$1,$6,$7*
1,1,$1+$1,$8,$9*
0 Add four rect primitives between the rounded corners*
20,1,$1+$1,$2,$3,$4,$5,0*
20,1,$1+$1,$4,$5,$6,$7,0*
20,1,$1+$1,$6,$7,$8,$9,0*
20,1,$1+$1,$8,$9,$2,$3,0*%
G04 Aperture macros list end*
%ADD10R,1.250000X0.900000*%
%ADD11RoundRect,0.200000X0.200000X0.275000X-0.200000X0.275000X-0.200000X-0.275000X0.200000X-0.275000X0*%
%ADD12R,0.500000X0.500000*%
%ADD13RoundRect,0.200000X-0.275000X0.200000X-0.275000X-0.200000X0.275000X-0.200000X0.275000X0.200000X0*%
%ADD14RoundRect,0.150000X-0.825000X-0.150000X0.825000X-0.150000X0.825000X0.150000X-0.825000X0.150000X0*%
%ADD15RoundRect,0.200000X-0.200000X-0.275000X0.200000X-0.275000X0.200000X0.275000X-0.200000X0.275000X0*%
%ADD16RoundRect,0.225000X-0.225000X-0.250000X0.225000X-0.250000X0.225000X0.250000X-0.225000X0.250000X0*%
%ADD17RoundRect,0.225000X0.250000X-0.225000X0.250000X0.225000X-0.250000X0.225000X-0.250000X-0.225000X0*%
%ADD18RoundRect,0.150000X-0.725000X-0.150000X0.725000X-0.150000X0.725000X0.150000X-0.725000X0.150000X0*%
%ADD19RoundRect,0.200000X0.275000X-0.200000X0.275000X0.200000X-0.275000X0.200000X-0.275000X-0.200000X0*%
%ADD20RoundRect,0.225000X0.225000X0.250000X-0.225000X0.250000X-0.225000X-0.250000X0.225000X-0.250000X0*%
%ADD21RoundRect,0.225000X-0.250000X0.225000X-0.250000X-0.225000X0.250000X-0.225000X0.250000X0.225000X0*%
%ADD22RoundRect,0.232500X0.232500X0.232500X-0.232500X0.232500X-0.232500X-0.232500X0.232500X-0.232500X0*%
%ADD23RoundRect,0.050000X0.362500X0.050000X-0.362500X0.050000X-0.362500X-0.050000X0.362500X-0.050000X0*%
%ADD24RoundRect,0.050000X0.050000X0.362500X-0.050000X0.362500X-0.050000X-0.362500X0.050000X-0.362500X0*%
G04 APERTURE END LIST*
D10*
%TO.C,SW27*%
X233995000Y-135140000D03*
X238445000Y-135140000D03*
X233995000Y-136640000D03*
X238445000Y-136640000D03*
%TD*%
D11*
%TO.C,R2*%
X213868000Y-191008000D03*
X212218000Y-191008000D03*
%TD*%
D12*
%TO.C,D34*%
X125110000Y-124460000D03*
X125110000Y-123760000D03*
X125110000Y-125160000D03*
X123810000Y-125160000D03*
X123810000Y-123760000D03*
X123810000Y-124460000D03*
%TD*%
D11*
%TO.C,R3*%
X122745000Y-180848000D03*
X121095000Y-180848000D03*
%TD*%
D13*
%TO.C,R11*%
X200152000Y-115253000D03*
X200152000Y-116903000D03*
%TD*%
D14*
%TO.C,U10*%
X242635000Y-147320000D03*
X242635000Y-148590000D03*
X242635000Y-149860000D03*
X242635000Y-151130000D03*
X242635000Y-152400000D03*
X242635000Y-153670000D03*
X242635000Y-154940000D03*
X242635000Y-156210000D03*
X247585000Y-156210000D03*
X247585000Y-154940000D03*
X247585000Y-153670000D03*
X247585000Y-152400000D03*
X247585000Y-151130000D03*
X247585000Y-149860000D03*
X247585000Y-148590000D03*
X247585000Y-147320000D03*
%TD*%
D12*
%TO.C,D14*%
X231140000Y-142890000D03*
X231840000Y-142890000D03*
X230440000Y-142890000D03*
X230440000Y-141590000D03*
X231840000Y-141590000D03*
X231140000Y-141590000D03*
%TD*%
D14*
%TO.C,U6*%
X243905000Y-99695000D03*
X243905000Y-100965000D03*
X243905000Y-102235000D03*
X243905000Y-103505000D03*
X243905000Y-104775000D03*
X243905000Y-106045000D03*
X243905000Y-107315000D03*
X243905000Y-108585000D03*
X248855000Y-108585000D03*
X248855000Y-107315000D03*
X248855000Y-106045000D03*
X248855000Y-104775000D03*
X248855000Y-103505000D03*
X248855000Y-102235000D03*
X248855000Y-100965000D03*
X248855000Y-99695000D03*
%TD*%
D15*
%TO.C,R10*%
X131763000Y-187960000D03*
X133413000Y-187960000D03*
%TD*%
D10*
%TO.C,SW21*%
X173035000Y-147840000D03*
X177485000Y-147840000D03*
X173035000Y-149340000D03*
X177485000Y-149340000D03*
%TD*%
%TO.C,SW20*%
X173035000Y-141490000D03*
X177485000Y-141490000D03*
X173035000Y-142990000D03*
X177485000Y-142990000D03*
%TD*%
D16*
%TO.C,C6*%
X121145000Y-179324000D03*
X122695000Y-179324000D03*
%TD*%
D10*
%TO.C,SW22*%
X173035000Y-154190000D03*
X177485000Y-154190000D03*
X173035000Y-155690000D03*
X177485000Y-155690000D03*
%TD*%
D12*
%TO.C,D32*%
X231140000Y-161940000D03*
X231840000Y-161940000D03*
X230440000Y-161940000D03*
X230440000Y-160640000D03*
X231840000Y-160640000D03*
X231140000Y-160640000D03*
%TD*%
D17*
%TO.C,C4*%
X137160000Y-180099000D03*
X137160000Y-178549000D03*
%TD*%
D18*
%TO.C,U3*%
X124933000Y-177927000D03*
X124933000Y-179197000D03*
X124933000Y-180467000D03*
X124933000Y-181737000D03*
X130083000Y-181737000D03*
X130083000Y-180467000D03*
X130083000Y-179197000D03*
X130083000Y-177927000D03*
%TD*%
D12*
%TO.C,D22*%
X125110000Y-93980000D03*
X125110000Y-93280000D03*
X125110000Y-94680000D03*
X123810000Y-94680000D03*
X123810000Y-93280000D03*
X123810000Y-93980000D03*
%TD*%
D14*
%TO.C,U1*%
X162625000Y-86995000D03*
X162625000Y-88265000D03*
X162625000Y-89535000D03*
X162625000Y-90805000D03*
X162625000Y-92075000D03*
X162625000Y-93345000D03*
X162625000Y-94615000D03*
X162625000Y-95885000D03*
X167575000Y-95885000D03*
X167575000Y-94615000D03*
X167575000Y-93345000D03*
X167575000Y-92075000D03*
X167575000Y-90805000D03*
X167575000Y-89535000D03*
X167575000Y-88265000D03*
X167575000Y-86995000D03*
%TD*%
D17*
%TO.C,C8*%
X198628000Y-116345000D03*
X198628000Y-114795000D03*
%TD*%
D19*
%TO.C,R6*%
X131572000Y-184721000D03*
X131572000Y-183071000D03*
%TD*%
D10*
%TO.C,SW30*%
X233995000Y-154190000D03*
X238445000Y-154190000D03*
X233995000Y-155690000D03*
X238445000Y-155690000D03*
%TD*%
%TO.C,SW26*%
X233995000Y-128790000D03*
X238445000Y-128790000D03*
X233995000Y-130290000D03*
X238445000Y-130290000D03*
%TD*%
D12*
%TO.C,D31*%
X180340000Y-161940000D03*
X181040000Y-161940000D03*
X179640000Y-161940000D03*
X179640000Y-160640000D03*
X181040000Y-160640000D03*
X180340000Y-160640000D03*
%TD*%
D11*
%TO.C,R1*%
X213868000Y-189484000D03*
X212218000Y-189484000D03*
%TD*%
D12*
%TO.C,D41*%
X267350000Y-139700000D03*
X267350000Y-139000000D03*
X267350000Y-140400000D03*
X266050000Y-140400000D03*
X266050000Y-139000000D03*
X266050000Y-139700000D03*
%TD*%
%TO.C,D28*%
X145430000Y-109220000D03*
X145430000Y-108520000D03*
X145430000Y-109920000D03*
X144130000Y-109920000D03*
X144130000Y-108520000D03*
X144130000Y-109220000D03*
%TD*%
%TO.C,D16*%
X145430000Y-78740000D03*
X145430000Y-78040000D03*
X145430000Y-79440000D03*
X144130000Y-79440000D03*
X144130000Y-78040000D03*
X144130000Y-78740000D03*
%TD*%
D20*
%TO.C,C9*%
X201943000Y-113284000D03*
X200393000Y-113284000D03*
%TD*%
D15*
%TO.C,R9*%
X132271000Y-177800000D03*
X133921000Y-177800000D03*
%TD*%
D12*
%TO.C,D19*%
X180340000Y-149240000D03*
X181040000Y-149240000D03*
X179640000Y-149240000D03*
X179640000Y-147940000D03*
X181040000Y-147940000D03*
X180340000Y-147940000D03*
%TD*%
D10*
%TO.C,SW24*%
X173035000Y-166890000D03*
X177485000Y-166890000D03*
X173035000Y-168390000D03*
X177485000Y-168390000D03*
%TD*%
D14*
%TO.C,U8*%
X243905000Y-112395000D03*
X243905000Y-113665000D03*
X243905000Y-114935000D03*
X243905000Y-116205000D03*
X243905000Y-117475000D03*
X243905000Y-118745000D03*
X243905000Y-120015000D03*
X243905000Y-121285000D03*
X248855000Y-121285000D03*
X248855000Y-120015000D03*
X248855000Y-118745000D03*
X248855000Y-117475000D03*
X248855000Y-116205000D03*
X248855000Y-114935000D03*
X248855000Y-113665000D03*
X248855000Y-112395000D03*
%TD*%
D12*
%TO.C,D44*%
X231140000Y-174640000D03*
X231840000Y-174640000D03*
X230440000Y-174640000D03*
X230440000Y-173340000D03*
X231840000Y-173340000D03*
X231140000Y-173340000D03*
%TD*%
%TO.C,D45*%
X192420000Y-118110000D03*
X192420000Y-117410000D03*
X192420000Y-118810000D03*
X191120000Y-118810000D03*
X191120000Y-117410000D03*
X191120000Y-118110000D03*
%TD*%
%TO.C,D1*%
X180340000Y-130190000D03*
X181040000Y-130190000D03*
X179640000Y-130190000D03*
X179640000Y-128890000D03*
X181040000Y-128890000D03*
X180340000Y-128890000D03*
%TD*%
%TO.C,D10*%
X165750000Y-63500000D03*
X165750000Y-62800000D03*
X165750000Y-64200000D03*
X164450000Y-64200000D03*
X164450000Y-62800000D03*
X164450000Y-63500000D03*
%TD*%
D11*
%TO.C,R7*%
X122745000Y-177800000D03*
X121095000Y-177800000D03*
%TD*%
D12*
%TO.C,D27*%
X180990000Y-118110000D03*
X180990000Y-117410000D03*
X180990000Y-118810000D03*
X179690000Y-118810000D03*
X179690000Y-117410000D03*
X179690000Y-118110000D03*
%TD*%
D19*
%TO.C,R8*%
X135636000Y-177609000D03*
X135636000Y-175959000D03*
%TD*%
D12*
%TO.C,D26*%
X231140000Y-155590000D03*
X231840000Y-155590000D03*
X230440000Y-155590000D03*
X230440000Y-154290000D03*
X231840000Y-154290000D03*
X231140000Y-154290000D03*
%TD*%
%TO.C,D20*%
X231140000Y-149240000D03*
X231840000Y-149240000D03*
X230440000Y-149240000D03*
X230440000Y-147940000D03*
X231840000Y-147940000D03*
X231140000Y-147940000D03*
%TD*%
%TO.C,D40*%
X145430000Y-139700000D03*
X145430000Y-139000000D03*
X145430000Y-140400000D03*
X144130000Y-140400000D03*
X144130000Y-139000000D03*
X144130000Y-139700000D03*
%TD*%
D14*
%TO.C,U9*%
X163895000Y-147320000D03*
X163895000Y-148590000D03*
X163895000Y-149860000D03*
X163895000Y-151130000D03*
X163895000Y-152400000D03*
X163895000Y-153670000D03*
X163895000Y-154940000D03*
X163895000Y-156210000D03*
X168845000Y-156210000D03*
X168845000Y-154940000D03*
X168845000Y-153670000D03*
X168845000Y-152400000D03*
X168845000Y-151130000D03*
X168845000Y-149860000D03*
X168845000Y-148590000D03*
X168845000Y-147320000D03*
%TD*%
D13*
%TO.C,R15*%
X209804000Y-116777000D03*
X209804000Y-118427000D03*
%TD*%
D12*
%TO.C,D46*%
X125110000Y-154940000D03*
X125110000Y-154240000D03*
X125110000Y-155640000D03*
X123810000Y-155640000D03*
X123810000Y-154240000D03*
X123810000Y-154940000D03*
%TD*%
%TO.C,D5*%
X226710000Y-78740000D03*
X226710000Y-78040000D03*
X226710000Y-79440000D03*
X225410000Y-79440000D03*
X225410000Y-78040000D03*
X225410000Y-78740000D03*
%TD*%
D15*
%TO.C,R4*%
X132271000Y-180848000D03*
X133921000Y-180848000D03*
%TD*%
D12*
%TO.C,D33*%
X184800000Y-118110000D03*
X184800000Y-117410000D03*
X184800000Y-118810000D03*
X183500000Y-118810000D03*
X183500000Y-117410000D03*
X183500000Y-118110000D03*
%TD*%
%TO.C,D25*%
X180340000Y-155590000D03*
X181040000Y-155590000D03*
X179640000Y-155590000D03*
X179640000Y-154290000D03*
X181040000Y-154290000D03*
X180340000Y-154290000D03*
%TD*%
D19*
%TO.C,R12*%
X209296000Y-113601000D03*
X209296000Y-111951000D03*
%TD*%
D12*
%TO.C,D2*%
X231140000Y-130190000D03*
X231840000Y-130190000D03*
X230440000Y-130190000D03*
X230440000Y-128890000D03*
X231840000Y-128890000D03*
X231140000Y-128890000D03*
%TD*%
%TO.C,D21*%
X192420000Y-114300000D03*
X192420000Y-113600000D03*
X192420000Y-115000000D03*
X191120000Y-115000000D03*
X191120000Y-113600000D03*
X191120000Y-114300000D03*
%TD*%
D10*
%TO.C,SW18*%
X173035000Y-128790000D03*
X177485000Y-128790000D03*
X173035000Y-130290000D03*
X177485000Y-130290000D03*
%TD*%
D14*
%TO.C,U2*%
X162625000Y-99695000D03*
X162625000Y-100965000D03*
X162625000Y-102235000D03*
X162625000Y-103505000D03*
X162625000Y-104775000D03*
X162625000Y-106045000D03*
X162625000Y-107315000D03*
X162625000Y-108585000D03*
X167575000Y-108585000D03*
X167575000Y-107315000D03*
X167575000Y-106045000D03*
X167575000Y-104775000D03*
X167575000Y-103505000D03*
X167575000Y-102235000D03*
X167575000Y-100965000D03*
X167575000Y-99695000D03*
%TD*%
D12*
%TO.C,D37*%
X180340000Y-168290000D03*
X181040000Y-168290000D03*
X179640000Y-168290000D03*
X179640000Y-166990000D03*
X181040000Y-166990000D03*
X180340000Y-166990000D03*
%TD*%
%TO.C,D4*%
X186070000Y-78740000D03*
X186070000Y-78040000D03*
X186070000Y-79440000D03*
X184770000Y-79440000D03*
X184770000Y-78040000D03*
X184770000Y-78740000D03*
%TD*%
D19*
%TO.C,R5*%
X133096000Y-184721000D03*
X133096000Y-183071000D03*
%TD*%
D10*
%TO.C,SW25*%
X173035000Y-173240000D03*
X177485000Y-173240000D03*
X173035000Y-174740000D03*
X177485000Y-174740000D03*
%TD*%
D12*
%TO.C,D15*%
X188610000Y-114300000D03*
X188610000Y-113600000D03*
X188610000Y-115000000D03*
X187310000Y-115000000D03*
X187310000Y-113600000D03*
X187310000Y-114300000D03*
%TD*%
D14*
%TO.C,U4*%
X162625000Y-112395000D03*
X162625000Y-113665000D03*
X162625000Y-114935000D03*
X162625000Y-116205000D03*
X162625000Y-117475000D03*
X162625000Y-118745000D03*
X162625000Y-120015000D03*
X162625000Y-121285000D03*
X167575000Y-121285000D03*
X167575000Y-120015000D03*
X167575000Y-118745000D03*
X167575000Y-117475000D03*
X167575000Y-116205000D03*
X167575000Y-114935000D03*
X167575000Y-113665000D03*
X167575000Y-112395000D03*
%TD*%
D12*
%TO.C,D23*%
X287670000Y-93980000D03*
X287670000Y-93280000D03*
X287670000Y-94680000D03*
X286370000Y-94680000D03*
X286370000Y-93280000D03*
X286370000Y-93980000D03*
%TD*%
D16*
%TO.C,C5*%
X128257000Y-183388000D03*
X129807000Y-183388000D03*
%TD*%
D12*
%TO.C,D11*%
X247030000Y-63500000D03*
X247030000Y-62800000D03*
X247030000Y-64200000D03*
X245730000Y-64200000D03*
X245730000Y-62800000D03*
X245730000Y-63500000D03*
%TD*%
D14*
%TO.C,U5*%
X243905000Y-86995000D03*
X243905000Y-88265000D03*
X243905000Y-89535000D03*
X243905000Y-90805000D03*
X243905000Y-92075000D03*
X243905000Y-93345000D03*
X243905000Y-94615000D03*
X243905000Y-95885000D03*
X248855000Y-95885000D03*
X248855000Y-94615000D03*
X248855000Y-93345000D03*
X248855000Y-92075000D03*
X248855000Y-90805000D03*
X248855000Y-89535000D03*
X248855000Y-88265000D03*
X248855000Y-86995000D03*
%TD*%
D20*
%TO.C,C7*%
X133871000Y-179324000D03*
X132321000Y-179324000D03*
%TD*%
D12*
%TO.C,D47*%
X287670000Y-154940000D03*
X287670000Y-154240000D03*
X287670000Y-155640000D03*
X286370000Y-155640000D03*
X286370000Y-154240000D03*
X286370000Y-154940000D03*
%TD*%
D13*
%TO.C,R14*%
X212344000Y-115507000D03*
X212344000Y-117157000D03*
%TD*%
D12*
%TO.C,D38*%
X231140000Y-168290000D03*
X231840000Y-168290000D03*
X230440000Y-168290000D03*
X230440000Y-166990000D03*
X231840000Y-166990000D03*
X231140000Y-166990000D03*
%TD*%
D13*
%TO.C,R13*%
X201676000Y-115253000D03*
X201676000Y-116903000D03*
%TD*%
D10*
%TO.C,SW32*%
X233995000Y-166890000D03*
X238445000Y-166890000D03*
X233995000Y-168390000D03*
X238445000Y-168390000D03*
%TD*%
%TO.C,SW31*%
X233995000Y-160540000D03*
X238445000Y-160540000D03*
X233995000Y-162040000D03*
X238445000Y-162040000D03*
%TD*%
D12*
%TO.C,D13*%
X180340000Y-142890000D03*
X181040000Y-142890000D03*
X179640000Y-142890000D03*
X179640000Y-141590000D03*
X181040000Y-141590000D03*
X180340000Y-141590000D03*
%TD*%
%TO.C,D35*%
X287670000Y-124460000D03*
X287670000Y-123760000D03*
X287670000Y-125160000D03*
X286370000Y-125160000D03*
X286370000Y-123760000D03*
X286370000Y-124460000D03*
%TD*%
%TO.C,D7*%
X180340000Y-136540000D03*
X181040000Y-136540000D03*
X179640000Y-136540000D03*
X179640000Y-135240000D03*
X181040000Y-135240000D03*
X180340000Y-135240000D03*
%TD*%
%TO.C,D18*%
X227980000Y-114300000D03*
X227980000Y-113600000D03*
X227980000Y-115000000D03*
X226680000Y-115000000D03*
X226680000Y-113600000D03*
X226680000Y-114300000D03*
%TD*%
%TO.C,D42*%
X227980000Y-118110000D03*
X227980000Y-117410000D03*
X227980000Y-118810000D03*
X226680000Y-118810000D03*
X226680000Y-117410000D03*
X226680000Y-118110000D03*
%TD*%
D16*
%TO.C,C3*%
X131813000Y-189484000D03*
X133363000Y-189484000D03*
%TD*%
D12*
%TO.C,D17*%
X267350000Y-78740000D03*
X267350000Y-78040000D03*
X267350000Y-79440000D03*
X266050000Y-79440000D03*
X266050000Y-78040000D03*
X266050000Y-78740000D03*
%TD*%
%TO.C,D24*%
X231790000Y-114300000D03*
X231790000Y-113600000D03*
X231790000Y-115000000D03*
X230490000Y-115000000D03*
X230490000Y-113600000D03*
X230490000Y-114300000D03*
%TD*%
D21*
%TO.C,C1*%
X216408000Y-131813000D03*
X216408000Y-133363000D03*
%TD*%
D12*
%TO.C,D8*%
X231140000Y-136540000D03*
X231840000Y-136540000D03*
X230440000Y-136540000D03*
X230440000Y-135240000D03*
X231840000Y-135240000D03*
X231140000Y-135240000D03*
%TD*%
%TO.C,D43*%
X180340000Y-174640000D03*
X181040000Y-174640000D03*
X179640000Y-174640000D03*
X179640000Y-173340000D03*
X181040000Y-173340000D03*
X180340000Y-173340000D03*
%TD*%
%TO.C,D29*%
X267350000Y-109220000D03*
X267350000Y-108520000D03*
X267350000Y-109920000D03*
X266050000Y-109920000D03*
X266050000Y-108520000D03*
X266050000Y-109220000D03*
%TD*%
D22*
%TO.C,U7*%
X206315000Y-116145000D03*
X206315000Y-114995000D03*
X205165000Y-116145000D03*
X205165000Y-114995000D03*
D23*
X207677500Y-116770000D03*
X207677500Y-116370000D03*
X207677500Y-115970000D03*
X207677500Y-115570000D03*
X207677500Y-115170000D03*
X207677500Y-114770000D03*
X207677500Y-114370000D03*
D24*
X206940000Y-113632500D03*
X206540000Y-113632500D03*
X206140000Y-113632500D03*
X205740000Y-113632500D03*
X205340000Y-113632500D03*
X204940000Y-113632500D03*
X204540000Y-113632500D03*
D23*
X203802500Y-114370000D03*
X203802500Y-114770000D03*
X203802500Y-115170000D03*
X203802500Y-115570000D03*
X203802500Y-115970000D03*
X203802500Y-116370000D03*
X203802500Y-116770000D03*
D24*
X204540000Y-117507500D03*
X204940000Y-117507500D03*
X205340000Y-117507500D03*
X205740000Y-117507500D03*
X206140000Y-117507500D03*
X206540000Y-117507500D03*
X206940000Y-117507500D03*
%TD*%
D12*
%TO.C,D48*%
X231790000Y-118110000D03*
X231790000Y-117410000D03*
X231790000Y-118810000D03*
X230490000Y-118810000D03*
X230490000Y-117410000D03*
X230490000Y-118110000D03*
%TD*%
D21*
%TO.C,C2*%
X218440000Y-131165000D03*
X218440000Y-132715000D03*
%TD*%
D10*
%TO.C,SW23*%
X173035000Y-160540000D03*
X177485000Y-160540000D03*
X173035000Y-162040000D03*
X177485000Y-162040000D03*
%TD*%
D12*
%TO.C,D6*%
X220360000Y-114300000D03*
X220360000Y-113600000D03*
X220360000Y-115000000D03*
X219060000Y-115000000D03*
X219060000Y-113600000D03*
X219060000Y-114300000D03*
%TD*%
%TO.C,D12*%
X224170000Y-114300000D03*
X224170000Y-113600000D03*
X224170000Y-115000000D03*
X222870000Y-115000000D03*
X222870000Y-113600000D03*
X222870000Y-114300000D03*
%TD*%
%TO.C,D39*%
X188610000Y-118110000D03*
X188610000Y-117410000D03*
X188610000Y-118810000D03*
X187310000Y-118810000D03*
X187310000Y-117410000D03*
X187310000Y-118110000D03*
%TD*%
D10*
%TO.C,SW19*%
X173035000Y-135140000D03*
X177485000Y-135140000D03*
X173035000Y-136640000D03*
X177485000Y-136640000D03*
%TD*%
D12*
%TO.C,D30*%
X220360000Y-118110000D03*
X220360000Y-117410000D03*
X220360000Y-118810000D03*
X219060000Y-118810000D03*
X219060000Y-117410000D03*
X219060000Y-118110000D03*
%TD*%
%TO.C,D36*%
X224170000Y-118110000D03*
X224170000Y-117410000D03*
X224170000Y-118810000D03*
X222870000Y-118810000D03*
X222870000Y-117410000D03*
X222870000Y-118110000D03*
%TD*%
D10*
%TO.C,SW33*%
X233995000Y-173240000D03*
X238445000Y-173240000D03*
X233995000Y-174740000D03*
X238445000Y-174740000D03*
%TD*%
%TO.C,SW28*%
X233995000Y-141490000D03*
X238445000Y-141490000D03*
X233995000Y-142990000D03*
X238445000Y-142990000D03*
%TD*%
D12*
%TO.C,D9*%
X184800000Y-114300000D03*
X184800000Y-113600000D03*
X184800000Y-115000000D03*
X183500000Y-115000000D03*
X183500000Y-113600000D03*
X183500000Y-114300000D03*
%TD*%
D10*
%TO.C,SW29*%
X233995000Y-147840000D03*
X238445000Y-147840000D03*
X233995000Y-149340000D03*
X238445000Y-149340000D03*
%TD*%
D12*
%TO.C,D3*%
X180990000Y-114300000D03*
X180990000Y-113600000D03*
X180990000Y-115000000D03*
X179690000Y-115000000D03*
X179690000Y-113600000D03*
X179690000Y-114300000D03*
%TD*%
M02*
