%TF.GenerationSoftware,KiCad,Pcbnew,10.0.3*%
%TF.CreationDate,2026-07-09T00:15:10-04:00*%
%TF.ProjectId,devboard,64657662-6f61-4726-942e-6b696361645f,rev?*%
%TF.SameCoordinates,Original*%
%TF.FileFunction,Soldermask,Bot*%
%TF.FilePolarity,Negative*%
%FSLAX46Y46*%
G04 Gerber Fmt 4.6, Leading zero omitted, Abs format (unit mm)*
G04 Created by KiCad (PCBNEW 10.0.3) date 2026-07-09 00:15:10*
%MOMM*%
%LPD*%
G01*
G04 APERTURE LIST*
G04 Aperture macros list*
%AMFreePoly0*
4,1,23,0.500000,-0.750000,0.000000,-0.750000,0.000000,-0.745722,-0.065263,-0.745722,-0.191342,-0.711940,-0.304381,-0.646677,-0.396677,-0.554381,-0.461940,-0.441342,-0.495722,-0.315263,-0.495722,-0.250000,-0.500000,-0.250000,-0.500000,0.250000,-0.495722,0.250000,-0.495722,0.315263,-0.461940,0.441342,-0.396677,0.554381,-0.304381,0.646677,-0.191342,0.711940,-0.065263,0.745722,0.000000,0.745722,
0.000000,0.750000,0.500000,0.750000,0.500000,-0.750000,0.500000,-0.750000,$1*%
%AMFreePoly1*
4,1,23,0.000000,0.745722,0.065263,0.745722,0.191342,0.711940,0.304381,0.646677,0.396677,0.554381,0.461940,0.441342,0.495722,0.315263,0.495722,0.250000,0.500000,0.250000,0.500000,-0.250000,0.495722,-0.250000,0.495722,-0.315263,0.461940,-0.441342,0.396677,-0.554381,0.304381,-0.646677,0.191342,-0.711940,0.065263,-0.745722,0.000000,-0.745722,0.000000,-0.750000,-0.500000,-0.750000,
-0.500000,0.750000,0.000000,0.750000,0.000000,0.745722,0.000000,0.745722,$1*%
G04 Aperture macros list end*
%ADD10C,1.879600*%
%ADD11C,3.200000*%
%ADD12O,3.000000X3.600000*%
%ADD13C,1.700000*%
%ADD14R,1.700000X1.700000*%
%ADD15C,1.270000*%
%ADD16R,4.000000X4.000000*%
%ADD17C,2.375700*%
%ADD18O,4.704000X2.454000*%
%ADD19FreePoly0,270.000000*%
%ADD20FreePoly1,270.000000*%
G04 APERTURE END LIST*
%TO.C,J2*%
D10*
X150799800Y-167843200D02*
G75*
G02*
X148920200Y-167843200I-939800J0D01*
G01*
X148920200Y-167843200D02*
G75*
G02*
X150799800Y-167843200I939800J0D01*
G01*
X150799800Y-172923200D02*
G75*
G02*
X148920200Y-172923200I-939800J0D01*
G01*
X148920200Y-172923200D02*
G75*
G02*
X150799800Y-172923200I939800J0D01*
G01*
X150799800Y-185623200D02*
G75*
G02*
X148920200Y-185623200I-939800J0D01*
G01*
X148920200Y-185623200D02*
G75*
G02*
X150799800Y-185623200I939800J0D01*
G01*
%TO.C,J1*%
X262559800Y-167843200D02*
G75*
G02*
X260680200Y-167843200I-939800J0D01*
G01*
X260680200Y-167843200D02*
G75*
G02*
X262559800Y-167843200I939800J0D01*
G01*
X262559800Y-172923200D02*
G75*
G02*
X260680200Y-172923200I-939800J0D01*
G01*
X260680200Y-172923200D02*
G75*
G02*
X262559800Y-172923200I939800J0D01*
G01*
X262559800Y-185623200D02*
G75*
G02*
X260680200Y-185623200I-939800J0D01*
G01*
X260680200Y-185623200D02*
G75*
G02*
X262559800Y-185623200I939800J0D01*
G01*
%TO.C,JP1*%
G36*
X204990000Y-185270000D02*
G01*
X206490000Y-185270000D01*
X206490000Y-185570000D01*
X204990000Y-185570000D01*
X204990000Y-185270000D01*
G37*
%TD*%
D11*
%TO.C,H1*%
X111760000Y-193040000D03*
%TD*%
%TO.C,H3*%
X259080000Y-68580000D03*
%TD*%
D12*
%TO.C,SW11*%
X240780000Y-73660000D03*
X251980000Y-73660000D03*
D13*
X243880000Y-81160000D03*
X248880000Y-81160000D03*
D14*
X246380000Y-81160000D03*
D13*
X243880000Y-66660000D03*
X248880000Y-66660000D03*
%TD*%
D12*
%TO.C,SW2*%
X159500000Y-73660000D03*
X170700000Y-73660000D03*
D13*
X162600000Y-81160000D03*
X167600000Y-81160000D03*
D14*
X165100000Y-81160000D03*
D13*
X162600000Y-66660000D03*
X167600000Y-66660000D03*
%TD*%
D12*
%TO.C,SW7*%
X118860000Y-134620000D03*
X130060000Y-134620000D03*
D13*
X121960000Y-142120000D03*
X126960000Y-142120000D03*
D14*
X124460000Y-142120000D03*
D13*
X121960000Y-127620000D03*
X126960000Y-127620000D03*
%TD*%
D15*
%TO.C,SW1*%
X225938799Y-184104550D03*
X227938800Y-184104550D03*
X229938799Y-184104550D03*
X231938800Y-184104550D03*
X233938798Y-184104550D03*
X235938799Y-184104550D03*
X225938799Y-186604550D03*
X227938800Y-186604550D03*
X229938799Y-186604550D03*
X231938800Y-186604550D03*
X233938798Y-186604550D03*
X235938799Y-186604550D03*
%TD*%
D12*
%TO.C,SW8*%
X139180000Y-149860000D03*
X150380000Y-149860000D03*
D13*
X142280000Y-157360000D03*
X147280000Y-157360000D03*
D14*
X144780000Y-157360000D03*
D13*
X142280000Y-142860000D03*
X147280000Y-142860000D03*
%TD*%
D16*
%TO.C,N1*%
X276860000Y-193040000D03*
%TD*%
D12*
%TO.C,SW3*%
X179820000Y-88900000D03*
X191020000Y-88900000D03*
D13*
X182920000Y-96400000D03*
X187920000Y-96400000D03*
D14*
X185420000Y-96400000D03*
D13*
X182920000Y-81900000D03*
X187920000Y-81900000D03*
%TD*%
D14*
%TO.C,RV1*%
X124460000Y-185420000D03*
D13*
X119380000Y-185420000D03*
X114300000Y-185420000D03*
%TD*%
D12*
%TO.C,SW15*%
X281420000Y-134620000D03*
X292620000Y-134620000D03*
D13*
X284520000Y-142120000D03*
X289520000Y-142120000D03*
D14*
X287020000Y-142120000D03*
D13*
X284520000Y-127620000D03*
X289520000Y-127620000D03*
%TD*%
D14*
%TO.C,RV2*%
X185420000Y-185420000D03*
D13*
X180340000Y-185420000D03*
X175260000Y-185420000D03*
%TD*%
D12*
%TO.C,SW17*%
X281420000Y-165100000D03*
X292620000Y-165100000D03*
D13*
X284520000Y-172600000D03*
X289520000Y-172600000D03*
D14*
X287020000Y-172600000D03*
D13*
X284520000Y-158100000D03*
X289520000Y-158100000D03*
%TD*%
D12*
%TO.C,SW14*%
X261100000Y-119380000D03*
X272300000Y-119380000D03*
D13*
X264200000Y-126880000D03*
X269200000Y-126880000D03*
D14*
X266700000Y-126880000D03*
D13*
X264200000Y-112380000D03*
X269200000Y-112380000D03*
%TD*%
D12*
%TO.C,SW9*%
X118860000Y-165100000D03*
X130060000Y-165100000D03*
D13*
X121960000Y-172600000D03*
X126960000Y-172600000D03*
D14*
X124460000Y-172600000D03*
D13*
X121960000Y-158100000D03*
X126960000Y-158100000D03*
%TD*%
D12*
%TO.C,SW12*%
X261100000Y-88900000D03*
X272300000Y-88900000D03*
D13*
X264200000Y-96400000D03*
X269200000Y-96400000D03*
D14*
X266700000Y-96400000D03*
D13*
X264200000Y-81900000D03*
X269200000Y-81900000D03*
%TD*%
D12*
%TO.C,SW4*%
X139180000Y-88900000D03*
X150380000Y-88900000D03*
D13*
X142280000Y-96400000D03*
X147280000Y-96400000D03*
D14*
X144780000Y-96400000D03*
D13*
X142280000Y-81900000D03*
X147280000Y-81900000D03*
%TD*%
D17*
%TO.C,J2*%
X154609800Y-178003200D03*
X144703800Y-178003200D03*
X154609800Y-185623200D03*
X154609800Y-167843200D03*
X144703800Y-167843200D03*
%TD*%
%TO.C,J1*%
X266369800Y-178003200D03*
X256463800Y-178003200D03*
X266369800Y-185623200D03*
X266369800Y-167843200D03*
X256463800Y-167843200D03*
%TD*%
D12*
%TO.C,SW13*%
X281420000Y-104140000D03*
X292620000Y-104140000D03*
D13*
X284520000Y-111640000D03*
X289520000Y-111640000D03*
D14*
X287020000Y-111640000D03*
D13*
X284520000Y-97140000D03*
X289520000Y-97140000D03*
%TD*%
D12*
%TO.C,SW16*%
X261100000Y-149860000D03*
X272300000Y-149860000D03*
D13*
X264200000Y-157360000D03*
X269200000Y-157360000D03*
D14*
X266700000Y-157360000D03*
D13*
X264200000Y-142860000D03*
X269200000Y-142860000D03*
%TD*%
D18*
%TO.C,J3*%
X205740000Y-72975000D03*
X205740000Y-66675000D03*
%TD*%
D12*
%TO.C,SW5*%
X118860000Y-104140000D03*
X130060000Y-104140000D03*
D13*
X121960000Y-111640000D03*
X126960000Y-111640000D03*
D14*
X124460000Y-111640000D03*
D13*
X121960000Y-97140000D03*
X126960000Y-97140000D03*
%TD*%
D12*
%TO.C,SW10*%
X220460000Y-88900000D03*
X231660000Y-88900000D03*
D13*
X223560000Y-96400000D03*
X228560000Y-96400000D03*
D14*
X226060000Y-96400000D03*
D13*
X223560000Y-81900000D03*
X228560000Y-81900000D03*
%TD*%
D14*
%TO.C,A1*%
X213360000Y-178445000D03*
D13*
X213360000Y-175905000D03*
X213360000Y-173365000D03*
X213360000Y-170825000D03*
X213360000Y-168285000D03*
X213360000Y-165745000D03*
X213360000Y-163205000D03*
X213360000Y-160665000D03*
X213360000Y-158125000D03*
X213360000Y-155585000D03*
X213360000Y-153045000D03*
X213360000Y-150505000D03*
X213360000Y-147965000D03*
X213360000Y-145425000D03*
X213360000Y-142885000D03*
X213360000Y-140345000D03*
X213360000Y-137805000D03*
X213360000Y-135265000D03*
X213360000Y-132725000D03*
X213360000Y-130185000D03*
X198120000Y-130185000D03*
X198120000Y-132725000D03*
X198120000Y-135265000D03*
X198120000Y-137805000D03*
X198120000Y-140345000D03*
X198120000Y-142885000D03*
X198120000Y-145425000D03*
X198120000Y-147965000D03*
X198120000Y-150505000D03*
X198120000Y-153045000D03*
X198120000Y-155585000D03*
X198120000Y-158125000D03*
X198120000Y-160665000D03*
X198120000Y-163205000D03*
X198120000Y-165745000D03*
X198120000Y-168285000D03*
X198120000Y-170825000D03*
X198120000Y-173365000D03*
X198120000Y-175905000D03*
X198120000Y-178445000D03*
%TD*%
D11*
%TO.C,H4*%
X152400000Y-68580000D03*
%TD*%
D12*
%TO.C,SW6*%
X139180000Y-119380000D03*
X150380000Y-119380000D03*
D13*
X142280000Y-126880000D03*
X147280000Y-126880000D03*
D14*
X144780000Y-126880000D03*
D13*
X142280000Y-112380000D03*
X147280000Y-112380000D03*
%TD*%
D11*
%TO.C,H2*%
X299720000Y-193040000D03*
%TD*%
D19*
%TO.C,JP1*%
X205740000Y-184770000D03*
D20*
X205740000Y-186070000D03*
%TD*%
M02*
