M48
; DRILL file KiCad 10.0.3 date 2026-07-09T00:15:10
; FORMAT={-:-/ absolute / inch / decimal}
; #@! TF.CreationDate,2026-07-09T00:15:10-04:00
; #@! TF.GenerationSoftware,Kicad,Pcbnew,10.0.3
; #@! TF.FileFunction,Plated,1,2,PTH
FMAT,2
INCH
; #@! TA.AperFunction,Plated,PTH,ViaDrill
T1C0.0118
; #@! TA.AperFunction,Plated,PTH,ViaDrill
T2C0.0236
; #@! TA.AperFunction,Plated,PTH,ComponentDrill
T3C0.0300
; #@! TA.AperFunction,Plated,PTH,ComponentDrill
T4C0.0394
; #@! TA.AperFunction,Plated,PTH,ComponentDrill
T5C0.0433
; #@! TA.AperFunction,Plated,PTH,ComponentDrill
T6C0.0570
; #@! TA.AperFunction,Plated,PTH,ComponentDrill
T7C0.0787
%
G90
G05
T1
X4.25Y-4.85
X4.25Y-5.7
X4.275Y-4.825
X4.275Y-5.725
X4.3Y-4.95
X4.3Y-5.675
X4.375Y-4.95
X4.375Y-5.7
X4.4Y-4.85
X4.4Y-5.675
X4.4Y-5.725
X4.425Y-4.825
X4.5Y-4.0
X4.5Y-4.1
X4.5Y-4.2
X4.5Y-4.3
X4.5Y-4.4
X4.5Y-4.5
X4.5Y-4.6
X4.5Y-4.7
X4.5Y-5.1
X4.5Y-5.2
X4.5Y-5.3
X4.5Y-5.4
X4.5Y-5.5
X4.5Y-6.2
X4.5Y-6.3
X4.5Y-6.4
X4.5Y-6.5
X4.5Y-6.6
X4.5Y-6.7
X4.5Y-6.8
X4.5Y-6.9
X4.5Y-7.0
X4.5Y-7.1
X4.6Y-4.6
X4.6Y-7.6
X4.7Y-4.6
X4.7Y-7.18
X4.7Y-7.6
X4.72Y-7.08
X4.7764Y-7.2623
X4.8Y-4.6
X4.8Y-6.05
X4.8Y-6.96
X4.8Y-7.24
X4.8Y-7.6
X4.8449Y-6.0685
X4.8449Y-6.1
X4.9Y-4.6
X4.9Y-7.6
X4.9039Y-6.0685
X4.9039Y-6.1
X4.925Y-3.175
X4.925Y-3.475
X4.9276Y-6.0429
X4.96Y-7.12
X4.975Y-3.075
X4.975Y-3.7
X5.0Y-3.15
X5.0Y-3.7276
X5.0Y-4.6
X5.0Y-7.22
X5.0Y-7.28
X5.0Y-7.32
X5.0Y-7.6
X5.02Y-7.08
X5.04Y-7.28
X5.04Y-7.32
X5.06Y-7.02
X5.08Y-7.14
X5.08Y-7.28
X5.08Y-7.32
X5.1Y-4.6
X5.1Y-7.6
X5.125Y-5.675
X5.125Y-5.725
X5.15Y-5.7
X5.15Y-5.75
X5.2Y-7.6
X5.2034Y-7.175
X5.24Y-5.8
X5.24Y-5.9
X5.26Y-5.04
X5.26Y-6.96
X5.275Y-3.75
X5.3Y-4.94
X5.3Y-5.38
X5.3Y-5.76
X5.3Y-5.84
X5.3Y-7.6
X5.3208Y-3.9042
X5.338Y-7.058
X5.35Y-7.5
X5.36Y-5.1
X5.36Y-7.12
X5.4Y-5.14
X5.4Y-7.5
X5.4Y-7.6
X5.425Y-3.975
X5.426Y-3.9425
X5.45Y-5.475
X5.45Y-5.525
X5.475Y-4.0731
X5.475Y-5.45
X5.475Y-5.5
X5.5Y-7.6
X5.5105Y-4.3105
X5.524Y-4.0825
X5.525Y-4.05
X5.5575Y-4.049
X5.6Y-7.6
X5.6252Y-4.88
X5.64Y-4.82
X5.64Y-7.3
X5.64Y-7.34
X5.68Y-7.3
X5.68Y-7.34
X5.7Y-2.35
X5.7Y-2.8
X5.7Y-7.6
X5.71Y-6.08
X5.72Y-6.04
X5.72Y-7.3
X5.72Y-7.34
X5.725Y-2.375
X5.725Y-2.775
X5.75Y-2.4
X5.75Y-2.75
X5.75Y-4.5
X5.75Y-6.08
X5.75Y-6.35
X5.76Y-3.72
X5.76Y-6.04
X5.79Y-6.08
X5.8Y-6.04
X5.8Y-7.6
X5.85Y-6.35
X5.875Y-3.8
X5.88Y-3.66
X5.9Y-7.0
X5.9Y-7.1
X5.9Y-7.6
X5.92Y-3.8
X5.95Y-6.35
X6.0Y-2.9
X6.0Y-3.0
X6.0Y-3.1
X6.0Y-3.2
X6.0Y-3.8
X6.0Y-4.02
X6.0Y-4.18
X6.0Y-7.1
X6.0Y-7.6
X6.02Y-4.1236
X6.04Y-3.76
X6.04Y-4.06
X6.05Y-6.35
X6.08Y-3.72
X6.1Y-2.9
X6.1Y-3.0
X6.1Y-3.1
X6.1Y-3.2
X6.1Y-4.16
X6.1Y-4.3
X6.1Y-7.1
X6.1Y-7.6
X6.1164Y-4.3407
X6.1164Y-4.46
X6.12Y-3.68
X6.12Y-4.74
X6.1213Y-4.9013
X6.1375Y-3.7375
X6.14Y-4.6
X6.15Y-4.325
X6.15Y-4.95
X6.15Y-7.225
X6.1564Y-3.78
X6.1636Y-4.68
X6.175Y-4.06
X6.175Y-4.35
X6.175Y-4.875
X6.1764Y-4.1
X6.18Y-3.46
X6.2Y-4.4
X6.2Y-4.75
X6.2Y-4.85
X6.2Y-7.1
X6.2Y-7.6
X6.2236Y-4.04
X6.24Y-4.6
X6.25Y-3.45
X6.25Y-5.0
X6.25Y-5.1
X6.25Y-5.2
X6.25Y-5.3
X6.25Y-5.4
X6.25Y-5.5
X6.2636Y-4.0964
X6.275Y-4.425
X6.275Y-4.4764
X6.2856Y-4.0496
X6.3Y-7.1
X6.3Y-7.225
X6.3Y-7.6
X6.35Y-7.15
X6.375Y-5.8892
X6.375Y-6.05
X6.38Y-7.02
X6.4Y-2.525
X6.4Y-5.0
X6.4Y-5.1
X6.4Y-5.2
X6.4Y-5.3
X6.4Y-5.4
X6.4Y-5.5
X6.4Y-7.1
X6.4Y-7.6
X6.425Y-2.45
X6.425Y-2.5
X6.425Y-2.55
X6.44Y-6.2
X6.4449Y-2.475
X6.45Y-2.425
X6.45Y-7.15
X6.475Y-3.675
X6.475Y-4.175
X6.475Y-4.675
X6.48Y-6.24
X6.5Y-2.4
X6.5Y-3.725
X6.5Y-4.225
X6.5Y-4.725
X6.5Y-7.6
X6.5009Y-6.024
X6.52Y-3.3106
X6.525Y-2.375
X6.525Y-3.425
X6.525Y-3.575
X6.525Y-3.775
X6.525Y-4.275
X6.525Y-4.775
X6.525Y-5.65
X6.525Y-5.975
X6.54Y-7.06
X6.5491Y-3.551
X6.55Y-3.275
X6.55Y-5.675
X6.55Y-6.1
X6.575Y-2.4
X6.575Y-2.45
X6.575Y-2.5
X6.575Y-2.55
X6.575Y-5.7
X6.575Y-6.15
X6.58Y-4.32
X6.6Y-2.375
X6.6Y-2.425
X6.6Y-2.475
X6.6Y-2.525
X6.6Y-5.0
X6.6Y-5.1
X6.6Y-5.2
X6.6Y-5.3
X6.6Y-5.4
X6.6Y-5.5
X6.6Y-7.6
X6.624Y-3.275
X6.625Y-6.3
X6.65Y-6.2435
X6.65Y-6.275
X6.65Y-6.75
X6.6705Y-4.0812
X6.675Y-3.325
X6.675Y-3.5
X6.675Y-3.55
X6.675Y-4.0
X6.675Y-4.05
X6.675Y-4.15
X6.675Y-4.5
X6.675Y-6.725
X6.7Y-3.575
X6.7Y-3.975
X6.7Y-6.7
X6.7Y-7.6
X6.7065Y-3.5
X6.725Y-4.225
X6.725Y-5.725
X6.7292Y-5.8792
X6.75Y-3.8
X6.75Y-4.0
X6.75Y-4.05
X6.75Y-5.75
X6.75Y-5.825
X6.8Y-4.4
X6.8Y-5.45
X6.8Y-7.6
X6.85Y-5.5
X6.9Y-4.425
X6.9Y-5.45
X6.9Y-7.6
X6.95Y-4.425
X6.95Y-4.475
X6.95Y-5.5
X6.975Y-4.525
X7.0Y-4.425
X7.0Y-4.575
X7.0Y-7.6
X7.05Y-6.79
X7.0739Y-3.7011
X7.075Y-4.0
X7.075Y-4.05
X7.075Y-4.6
X7.075Y-5.2
X7.075Y-5.275
X7.075Y-5.475
X7.075Y-5.675
X7.075Y-5.925
X7.075Y-6.175
X7.075Y-6.425
X7.1Y-3.65
X7.1Y-5.05
X7.1Y-5.15
X7.1Y-5.425
X7.1Y-7.6
X7.125Y-5.025
X7.125Y-5.175
X7.125Y-5.3
X7.125Y-5.45
X7.125Y-5.55
X7.125Y-5.65
X7.125Y-5.8
X7.125Y-5.9
X7.125Y-6.05
X7.125Y-6.15
X7.125Y-6.3
X7.125Y-6.4
X7.125Y-6.55
X7.125Y-6.65
X7.125Y-6.8
X7.14Y-3.87
X7.17Y-3.89
X7.17Y-4.48
X7.17Y-4.63
X7.1764Y-6.6764
X7.2Y-4.5
X7.2Y-4.65
X7.2Y-4.95
X7.2Y-5.0264
X7.2Y-5.15
X7.2Y-5.425
X7.2Y-7.6
X7.225Y-5.05
X7.225Y-5.175
X7.225Y-5.275
X7.225Y-5.45
X7.225Y-5.65
X7.225Y-5.9
X7.225Y-6.15
X7.225Y-6.4
X7.225Y-6.65
X7.25Y-4.2
X7.25Y-4.9
X7.25Y-4.95
X7.25Y-5.2
X7.25Y-5.3
X7.25Y-5.475
X7.25Y-5.675
X7.25Y-5.925
X7.25Y-6.175
X7.25Y-6.425
X7.25Y-6.6764
X7.275Y-5.55
X7.3Y-5.8
X7.3Y-6.88
X7.3Y-6.92
X7.3Y-7.6
X7.31Y-4.7
X7.325Y-2.375
X7.325Y-2.6
X7.325Y-6.05
X7.34Y-6.88
X7.34Y-6.92
X7.35Y-2.35
X7.35Y-2.575
X7.35Y-4.2
X7.35Y-4.5
X7.35Y-4.85
X7.35Y-6.3
X7.375Y-2.4
X7.375Y-2.6
X7.375Y-4.775
X7.375Y-6.55
X7.38Y-6.88
X7.38Y-6.92
X7.4Y-6.8
X7.4Y-7.6
X7.42Y-6.88
X7.42Y-6.92
X7.45Y-4.0
X7.45Y-4.1
X7.45Y-4.2
X7.457Y-4.8264
X7.457Y-4.9014
X7.46Y-4.95
X7.4708Y-4.6458
X7.4762Y-4.8514
X7.4807Y-4.9236
X7.5Y-4.5
X7.5Y-4.7
X7.5Y-4.975
X7.5Y-5.1
X7.5Y-7.6
X7.5224Y-4.575
X7.525Y-5.0
X7.525Y-7.225
X7.5287Y-4.7244
X7.54Y-6.84
X7.55Y-5.3
X7.5524Y-4.875
X7.57Y-4.56
X7.575Y-5.325
X7.6Y-4.598
X7.6Y-6.7801
X7.7Y-4.7
X7.7Y-7.05
X7.75Y-7.1
X7.8Y-3.1
X7.8Y-3.2
X7.82Y-4.775
X7.8436Y-4.75
X7.85Y-3.7
X7.85Y-3.8
X7.85Y-3.9
X7.85Y-4.0
X7.85Y-4.1
X7.85Y-4.2
X7.85Y-5.675
X7.85Y-7.1
X7.8672Y-4.7764
X7.875Y-5.1
X7.875Y-6.825
X7.9Y-3.0
X7.9Y-3.1
X7.9Y-3.2
X7.9Y-5.375
X7.9Y-5.75
X7.9Y-7.05
X7.95Y-5.1
X7.9716Y-4.5421
X7.975Y-5.125
X8.0Y-3.0
X8.0Y-3.1
X8.0Y-3.2
X8.0Y-4.35
X8.0Y-7.05
X8.025Y-4.15
X8.025Y-4.75
X8.025Y-4.825
X8.05Y-4.225
X8.05Y-4.775
X8.05Y-4.85
X8.075Y-4.275
X8.075Y-4.75
X8.075Y-4.875
X8.1Y-3.0
X8.1Y-3.1
X8.1Y-4.3
X8.1Y-4.775
X8.1Y-4.9
X8.1Y-7.05
X8.125Y-4.175
X8.125Y-4.75
X8.125Y-4.925
X8.15Y-4.2
X8.15Y-4.775
X8.15Y-4.95
X8.175Y-4.25
X8.175Y-4.75
X8.175Y-4.975
X8.2Y-3.0
X8.2Y-4.775
X8.2Y-5.0
X8.2Y-6.925
X8.2Y-7.05
X8.2121Y-4.601
X8.22Y-4.66
X8.225Y-4.15
X8.225Y-4.2
X8.225Y-4.25
X8.225Y-4.3
X8.225Y-4.35
X8.225Y-5.6
X8.225Y-6.05
X8.24Y-4.72
X8.25Y-4.175
X8.25Y-4.225
X8.25Y-4.275
X8.25Y-5.625
X8.275Y-5.65
X8.3Y-4.5
X8.3Y-4.75
X8.3079Y-4.5521
X8.325Y-2.425
X8.325Y-2.575
X8.325Y-4.775
X8.325Y-5.1
X8.325Y-5.15
X8.35Y-2.45
X8.35Y-2.6
X8.35Y-4.45
X8.35Y-5.05
X8.375Y-2.475
X8.375Y-2.575
X8.4Y-2.525
X8.4Y-2.6
X8.4Y-4.45
X8.4Y-4.7
X8.4042Y-5.0292
X8.425Y-2.5
X8.425Y-2.575
X8.475Y-2.4
X8.475Y-2.575
X8.475Y-4.125
X8.475Y-4.375
X8.475Y-4.75
X8.5Y-2.375
X8.5Y-2.6
X8.5Y-4.1
X8.5Y-4.4
X8.5Y-4.725
X8.525Y-2.35
X8.525Y-2.575
X8.56Y-5.42
X8.5958Y-4.4292
X8.6Y-5.3
X8.6373Y-5.6627
X8.6746Y-5.8
X8.7Y-4.4
X8.7Y-6.9
X8.713Y-4.565
X8.713Y-4.715
X8.725Y-6.875
X8.7366Y-4.625
X8.75Y-4.425
X8.75Y-4.475
X8.75Y-5.05
X8.75Y-6.5
X8.75Y-6.75
X8.775Y-4.375
X8.775Y-6.725
X8.775Y-6.775
X8.8Y-4.4508
X8.8Y-4.6008
X8.8Y-6.8
X8.825Y-4.375
X8.825Y-6.55
X8.85Y-6.3
X8.875Y-2.35
X8.875Y-2.575
X8.875Y-5.15
X8.875Y-5.4
X8.875Y-5.65
X8.875Y-5.9
X8.875Y-6.025
X8.875Y-6.15
X8.875Y-6.4
X8.875Y-6.65
X8.875Y-6.9
X8.8828Y-4.4744
X8.892Y-4.6707
X8.8953Y-4.5413
X8.9Y-5.2
X8.9Y-5.45
X8.9Y-5.7
X8.9Y-5.8
X8.9Y-5.95
X8.9Y-6.05
X8.9Y-6.2
X8.9Y-6.45
X8.9Y-6.7
X8.9Y-6.95
X8.925Y-2.5
X8.925Y-2.575
X8.925Y-5.175
X8.925Y-5.425
X8.925Y-5.675
X8.925Y-5.775
X8.925Y-5.925
X8.925Y-6.175
X8.925Y-6.425
X8.925Y-6.675
X8.925Y-6.925
X8.95Y-2.525
X8.95Y-2.6
X8.95Y-4.4
X8.95Y-4.9
X8.95Y-5.55
X8.975Y-5.3
X9.0Y-3.625
X9.0Y-5.35
X9.0Y-5.5
X9.0Y-5.6
X9.0Y-5.85
X9.0Y-6.1
X9.0Y-6.25
X9.0Y-6.35
X9.0Y-6.6
X9.0Y-6.85
X9.025Y-4.475
X9.0397Y-4.7228
X9.0445Y-4.6289
X9.05Y-5.25
X9.075Y-5.15
X9.075Y-5.3
X9.075Y-5.4
X9.075Y-5.55
X9.075Y-5.65
X9.075Y-5.775
X9.075Y-5.9
X9.075Y-6.05
X9.075Y-6.15
X9.075Y-6.3
X9.075Y-6.4
X9.075Y-6.55
X9.075Y-6.65
X9.075Y-6.8
X9.075Y-6.9
X9.1Y-5.175
X9.1Y-5.425
X9.1Y-5.675
X9.1Y-5.8
X9.1Y-5.925
X9.1Y-6.025
X9.1Y-6.175
X9.1Y-6.425
X9.1Y-6.675
X9.1Y-6.925
X9.125Y-5.2
X9.125Y-5.45
X9.125Y-5.7
X9.125Y-5.95
X9.125Y-6.2
X9.125Y-6.45
X9.125Y-6.7
X9.125Y-6.95
X9.15Y-3.625
X9.175Y-3.725
X9.225Y-3.775
X9.375Y-3.925
X9.4Y-4.525
X9.4Y-6.275
X9.45Y-4.075
X9.45Y-4.575
X9.45Y-5.325
X9.45Y-5.825
X9.475Y-4.025
X9.475Y-4.45
X9.475Y-4.875
X9.4791Y-6.25
X9.5Y-3.925
X9.5Y-4.05
X9.5Y-4.375
X9.5Y-4.475
X9.5Y-4.9
X9.5Y-6.9
X9.525Y-4.075
X9.525Y-4.3
X9.525Y-4.525
X9.525Y-4.575
X9.525Y-4.875
X9.55Y-3.85
X9.56Y-4.34
X9.58Y-3.32
X9.58Y-4.84
X9.6Y-3.825
X9.6Y-4.34
X9.6Y-6.9
X9.6014Y-6.3
X9.62Y-3.12
X9.62Y-4.84
X9.62Y-4.88
X9.625Y-2.4
X9.625Y-2.45
X9.625Y-2.5
X9.625Y-5.45
X9.625Y-5.725
X9.625Y-5.8
X9.625Y-6.75
X9.6449Y-2.475
X9.6449Y-2.525
X9.65Y-2.425
X9.65Y-4.375
X9.65Y-5.525
X9.65Y-5.825
X9.65Y-6.725
X9.675Y-3.525
X9.675Y-3.575
X9.675Y-3.675
X9.675Y-4.175
X9.675Y-4.675
X9.675Y-6.0
X9.675Y-6.7
X9.68Y-3.3196
X9.6817Y-3.3983
X9.7Y-2.425
X9.7Y-3.625
X9.7Y-3.725
X9.7Y-4.225
X9.7Y-4.725
X9.7Y-6.85
X9.725Y-2.4
X9.725Y-3.7
X9.725Y-3.775
X9.725Y-4.275
X9.725Y-4.775
X9.7292Y-3.4458
X9.75Y-3.825
X9.75Y-5.625
X9.7503Y-2.4497
X9.7551Y-2.5
X9.775Y-2.475
X9.775Y-2.525
X9.775Y-4.325
X9.775Y-5.05
X9.775Y-5.1035
X9.8Y-5.0799
X9.8Y-6.5
X9.8Y-6.6
X9.8Y-6.7
X9.8Y-6.8
X9.825Y-4.325
X9.85Y-6.25
X9.85Y-6.35
X9.9Y-5.825
X9.925Y-3.625
X9.925Y-3.825
X9.925Y-4.25
X9.95Y-3.925
X9.95Y-4.35
X9.95Y-6.25
X9.95Y-6.35
X9.975Y-3.95
X9.975Y-4.0
X9.975Y-4.125
X9.975Y-5.025
X9.975Y-5.1272
X10.0Y-3.625
X10.0Y-4.475
X10.0Y-5.0
X10.0Y-5.15
X10.025Y-4.45
X10.025Y-5.025
X10.025Y-5.3
X10.05Y-4.25
X10.05Y-6.25
X10.05Y-6.35
X10.075Y-4.0
X10.1Y-2.9
X10.1Y-3.0
X10.1Y-3.1
X10.1Y-3.2
X10.1Y-4.175
X10.1Y-4.35
X10.125Y-4.375
X10.15Y-4.15
X10.15Y-6.25
X10.15Y-6.35
X10.2Y-2.9
X10.2Y-3.0
X10.2Y-3.1
X10.2Y-3.2
X10.2Y-7.6
X10.275Y-4.2
X10.3Y-4.375
X10.3Y-7.6
X10.325Y-4.125
X10.35Y-4.0
X10.4Y-3.9
X10.4Y-3.95
X10.4Y-7.6
X10.48Y-3.86
X10.5Y-3.95
X10.5Y-7.6
X10.6Y-7.6
X10.625Y-2.925
X10.65Y-2.95
X10.7Y-3.0
X10.7Y-6.3
X10.7Y-7.6
X10.725Y-2.875
X10.75Y-2.95
X10.8Y-2.75
X10.8Y-6.0
X10.8Y-6.3
X10.9Y-5.025
X10.9Y-5.45
X10.9Y-5.9
X10.9Y-6.1
X10.9Y-6.3
X10.9Y-6.4
X10.9Y-6.5
X10.9489Y-4.1761
X11.0Y-6.0
X11.0324Y-4.1926
X11.1Y-7.6
X11.16Y-4.26
X11.18Y-4.3
X11.2Y-4.26
X11.2Y-4.6
X11.2Y-6.025
X11.2Y-7.6
X11.2042Y-5.9708
X11.22Y-4.3
X11.2232Y-5.9457
X11.2232Y-6.0
X11.225Y-4.85
X11.2292Y-4.8958
X11.3Y-4.6
X11.3Y-5.9708
X11.3Y-7.6
X11.325Y-5.9457
X11.35Y-3.65
X11.35Y-4.9
X11.35Y-6.0
X11.375Y-4.8724
X11.4Y-3.7
X11.4Y-4.6
X11.4Y-7.6
X11.425Y-3.575
X11.45Y-3.65
X11.5Y-4.6
X11.5Y-7.6
X11.65Y-5.25
X11.65Y-5.35
X11.65Y-5.45
X11.65Y-5.55
X11.65Y-5.65
X11.7Y-4.8488
X11.725Y-4.875
X11.725Y-4.925
X11.7458Y-5.9708
X11.775Y-4.925
X11.775Y-6.0
X11.8Y-4.875
X11.8Y-5.95
X11.825Y-4.85
X11.85Y-6.025
T2
X6.2Y-7.42
X6.325Y-5.8417
X6.425Y-3.85
X6.425Y-4.35
X6.6Y-3.35
X6.65Y-4.35
X6.925Y-4.35
X7.5254Y-6.9254
X7.6002Y-7.0252
X7.625Y-4.35
X8.1Y-7.44
X8.3Y-7.4637
X9.7Y-5.75
X9.8Y-3.375
X9.875Y-3.925
X9.875Y-4.425
T3
X8.8952Y-7.2482
X8.8952Y-7.3466
X8.974Y-7.2482
X8.974Y-7.3466
X9.0527Y-7.2482
X9.0527Y-7.3466
X9.1314Y-7.2482
X9.1314Y-7.3466
X9.2102Y-7.2482
X9.2102Y-7.3466
X9.2889Y-7.2482
X9.2889Y-7.3466
T4
X4.5Y-7.3
X4.7Y-7.3
X4.8016Y-3.8244
X4.8016Y-4.3953
X4.8016Y-5.0244
X4.8016Y-5.5953
X4.8016Y-6.2244
X4.8016Y-6.7953
X4.9Y-4.3953
X4.9Y-5.5953
X4.9Y-6.7953
X4.9Y-7.3
X4.9984Y-3.8244
X4.9984Y-4.3953
X4.9984Y-5.0244
X4.9984Y-5.5953
X4.9984Y-6.2244
X4.9984Y-6.7953
X5.6016Y-3.2244
X5.6016Y-3.7953
X5.6016Y-4.4244
X5.6016Y-4.9953
X5.6016Y-5.6244
X5.6016Y-6.1953
X5.7Y-3.7953
X5.7Y-4.9953
X5.7Y-6.1953
X5.7984Y-3.2244
X5.7984Y-3.7953
X5.7984Y-4.4244
X5.7984Y-4.9953
X5.7984Y-5.6244
X5.7984Y-6.1953
X6.4016Y-2.6244
X6.4016Y-3.1953
X6.5Y-3.1953
X6.5984Y-2.6244
X6.5984Y-3.1953
X6.9Y-7.3
X7.1Y-7.3
X7.2016Y-3.2244
X7.2016Y-3.7953
X7.3Y-3.7953
X7.3Y-7.3
X7.3984Y-3.2244
X7.3984Y-3.7953
X8.8016Y-3.2244
X8.8016Y-3.7953
X8.9Y-3.7953
X8.9984Y-3.2244
X8.9984Y-3.7953
X9.6016Y-2.6244
X9.6016Y-3.1953
X9.7Y-3.1953
X9.7984Y-2.6244
X9.7984Y-3.1953
X10.4016Y-3.2244
X10.4016Y-3.7953
X10.4016Y-4.4244
X10.4016Y-4.9953
X10.4016Y-5.6244
X10.4016Y-6.1953
X10.5Y-3.7953
X10.5Y-4.9953
X10.5Y-6.1953
X10.5984Y-3.2244
X10.5984Y-3.7953
X10.5984Y-4.4244
X10.5984Y-4.9953
X10.5984Y-5.6244
X10.5984Y-6.1953
X11.2016Y-3.8244
X11.2016Y-4.3953
X11.2016Y-5.0244
X11.2016Y-5.5953
X11.2016Y-6.2244
X11.2016Y-6.7953
X11.3Y-4.3953
X11.3Y-5.5953
X11.3Y-6.7953
X11.3984Y-3.8244
X11.3984Y-4.3953
X11.3984Y-5.0244
X11.3984Y-5.5953
X11.3984Y-6.2244
X11.3984Y-6.7953
T5
X7.8Y-5.1254
X7.8Y-5.2254
X7.8Y-5.3254
X7.8Y-5.4254
X7.8Y-5.5254
X7.8Y-5.6254
X7.8Y-5.7254
X7.8Y-5.8254
X7.8Y-5.9254
X7.8Y-6.0254
X7.8Y-6.1254
X7.8Y-6.2254
X7.8Y-6.3254
X7.8Y-6.4254
X7.8Y-6.5254
X7.8Y-6.6254
X7.8Y-6.7254
X7.8Y-6.8254
X7.8Y-6.9254
X7.8Y-7.0254
X8.4Y-5.1254
X8.4Y-5.2254
X8.4Y-5.3254
X8.4Y-5.4254
X8.4Y-5.5254
X8.4Y-5.6254
X8.4Y-5.7254
X8.4Y-5.8254
X8.4Y-5.9254
X8.4Y-6.0254
X8.4Y-6.1254
X8.4Y-6.2254
X8.4Y-6.3254
X8.4Y-6.4254
X8.4Y-6.5254
X8.4Y-6.6254
X8.4Y-6.7254
X8.4Y-6.8254
X8.4Y-6.9254
X8.4Y-7.0254
T6
X5.697Y-6.608
X5.697Y-7.008
X6.087Y-6.608
X6.087Y-7.008
X6.087Y-7.308
X10.097Y-6.608
X10.097Y-7.008
X10.487Y-6.608
X10.487Y-7.008
X10.487Y-7.308
T7
X10.9Y-7.6
T5
G00X8.0587Y-2.625
M15
G01X8.1413Y-2.625
M16
G05
G00X8.0587Y-2.873
M15
G01X8.1413Y-2.873
M16
G05
T7
G00X4.6795Y-4.0882
M15
G01X4.6795Y-4.1118
M16
G05
G00X4.6795Y-5.2882
M15
G01X4.6795Y-5.3118
M16
G05
G00X4.6795Y-6.4882
M15
G01X4.6795Y-6.5118
M16
G05
G00X5.1205Y-4.0882
M15
G01X5.1205Y-4.1118
M16
G05
G00X5.1205Y-5.2882
M15
G01X5.1205Y-5.3118
M16
G05
G00X5.1205Y-6.4882
M15
G01X5.1205Y-6.5118
M16
G05
G00X5.4795Y-3.4882
M15
G01X5.4795Y-3.5118
M16
G05
G00X5.4795Y-4.6882
M15
G01X5.4795Y-4.7118
M16
G05
G00X5.4795Y-5.8882
M15
G01X5.4795Y-5.9118
M16
G05
G00X5.9205Y-3.4882
M15
G01X5.9205Y-3.5118
M16
G05
G00X5.9205Y-4.6882
M15
G01X5.9205Y-4.7118
M16
G05
G00X5.9205Y-5.8882
M15
G01X5.9205Y-5.9118
M16
G05
G00X6.2795Y-2.8882
M15
G01X6.2795Y-2.9118
M16
G05
G00X6.7205Y-2.8882
M15
G01X6.7205Y-2.9118
M16
G05
G00X7.0795Y-3.4882
M15
G01X7.0795Y-3.5118
M16
G05
G00X7.5205Y-3.4882
M15
G01X7.5205Y-3.5118
M16
G05
G00X8.6795Y-3.4882
M15
G01X8.6795Y-3.5118
M16
G05
G00X9.1205Y-3.4882
M15
G01X9.1205Y-3.5118
M16
G05
G00X9.4795Y-2.8882
M15
G01X9.4795Y-2.9118
M16
G05
G00X9.9205Y-2.8882
M15
G01X9.9205Y-2.9118
M16
G05
G00X10.2795Y-3.4882
M15
G01X10.2795Y-3.5118
M16
G05
G00X10.2795Y-4.6882
M15
G01X10.2795Y-4.7118
M16
G05
G00X10.2795Y-5.8882
M15
G01X10.2795Y-5.9118
M16
G05
G00X10.7205Y-3.4882
M15
G01X10.7205Y-3.5118
M16
G05
G00X10.7205Y-4.6882
M15
G01X10.7205Y-4.7118
M16
G05
G00X10.7205Y-5.8882
M15
G01X10.7205Y-5.9118
M16
G05
G00X11.0795Y-4.0882
M15
G01X11.0795Y-4.1118
M16
G05
G00X11.0795Y-5.2882
M15
G01X11.0795Y-5.3118
M16
G05
G00X11.0795Y-6.4882
M15
G01X11.0795Y-6.5118
M16
G05
G00X11.5205Y-4.0882
M15
G01X11.5205Y-4.1118
M16
G05
G00X11.5205Y-5.2882
M15
G01X11.5205Y-5.3118
M16
G05
G00X11.5205Y-6.4882
M15
G01X11.5205Y-6.5118
M16
G05
M30
