%TF.GenerationSoftware,KiCad,Pcbnew,10.0.3*%
%TF.CreationDate,2026-07-09T00:15:10-04:00*%
%TF.ProjectId,devboard,64657662-6f61-4726-942e-6b696361645f,rev?*%
%TF.SameCoordinates,Original*%
%TF.FileFunction,Soldermask,Top*%
%TF.FilePolarity,Negative*%
%FSLAX46Y46*%
G04 Gerber Fmt 4.6, Leading zero omitted, Abs format (unit mm)*
G04 Created by KiCad (PCBNEW 10.0.3) date 2026-07-09 00:15:10*
%MOMM*%
%LPD*%
G01*
G04 APERTURE LIST*
G04 Aperture macros list*
%AMRoundRect*
0 Rectangle with rounded corners*
0 $1 Rounding radius*
0 $2 $3 $4 $5 $6 $7 $8 $9 X,Y pos of 4 corners*
0 Add a 4 corners polygon primitive as box body*
4,1,4,$2,$3,$4,$5,$6,$7,$8,$9,$2,$3,0*
0 Add four circle primitives for the rounded corners*
1,1,$1+$1,$2,$3*
1,1,$1+$1,$4,$5*
1,1,$1+$1,$6,$7*
1,1,$1+$1,$8,$9*
0 Add four rect primitives between the rounded corners*
20,1,$1+$1,$2,$3,$4,$5,0*
20,1,$1+$1,$4,$5,$6,$7,0*
20,1,$1+$1,$6,$7,$8,$9,0*
20,1,$1+$1,$8,$9,$2,$3,0*%
G04 Aperture macros list end*
%ADD10C,1.879600*%
%ADD11R,1.000000X1.000000*%
%ADD12R,1.250000X0.900000*%
%ADD13RoundRect,0.200000X0.200000X0.275000X-0.200000X0.275000X-0.200000X-0.275000X0.200000X-0.275000X0*%
%ADD14R,0.500000X0.500000*%
%ADD15O,3.000000X3.600000*%
%ADD16C,1.700000*%
%ADD17R,1.700000X1.700000*%
%ADD18RoundRect,0.200000X-0.275000X0.200000X-0.275000X-0.200000X0.275000X-0.200000X0.275000X0.200000X0*%
%ADD19RoundRect,0.150000X-0.825000X-0.150000X0.825000X-0.150000X0.825000X0.150000X-0.825000X0.150000X0*%
%ADD20RoundRect,0.200000X-0.200000X-0.275000X0.200000X-0.275000X0.200000X0.275000X-0.200000X0.275000X0*%
%ADD21RoundRect,0.225000X-0.225000X-0.250000X0.225000X-0.250000X0.225000X0.250000X-0.225000X0.250000X0*%
%ADD22C,1.270000*%
%ADD23RoundRect,0.225000X0.250000X-0.225000X0.250000X0.225000X-0.250000X0.225000X-0.250000X-0.225000X0*%
%ADD24RoundRect,0.150000X-0.725000X-0.150000X0.725000X-0.150000X0.725000X0.150000X-0.725000X0.150000X0*%
%ADD25RoundRect,0.200000X0.275000X-0.200000X0.275000X0.200000X-0.275000X0.200000X-0.275000X-0.200000X0*%
%ADD26R,4.000000X4.000000*%
%ADD27RoundRect,0.225000X0.225000X0.250000X-0.225000X0.250000X-0.225000X-0.250000X0.225000X-0.250000X0*%
%ADD28C,2.375700*%
%ADD29O,4.704000X2.454000*%
%ADD30RoundRect,0.225000X-0.250000X0.225000X-0.250000X-0.225000X0.250000X-0.225000X0.250000X0.225000X0*%
%ADD31RoundRect,0.050000X0.362500X0.050000X-0.362500X0.050000X-0.362500X-0.050000X0.362500X-0.050000X0*%
%ADD32RoundRect,0.050000X0.050000X0.362500X-0.050000X0.362500X-0.050000X-0.362500X0.050000X-0.362500X0*%
%ADD33R,2.300000X2.300000*%
G04 APERTURE END LIST*
%TO.C,J2*%
D10*
X150799800Y-167843200D02*
G75*
G02*
X148920200Y-167843200I-939800J0D01*
G01*
X148920200Y-167843200D02*
G75*
G02*
X150799800Y-167843200I939800J0D01*
G01*
X150799800Y-172923200D02*
G75*
G02*
X148920200Y-172923200I-939800J0D01*
G01*
X148920200Y-172923200D02*
G75*
G02*
X150799800Y-172923200I939800J0D01*
G01*
X150799800Y-185623200D02*
G75*
G02*
X148920200Y-185623200I-939800J0D01*
G01*
X148920200Y-185623200D02*
G75*
G02*
X150799800Y-185623200I939800J0D01*
G01*
%TO.C,J1*%
X262559800Y-167843200D02*
G75*
G02*
X260680200Y-167843200I-939800J0D01*
G01*
X260680200Y-167843200D02*
G75*
G02*
X262559800Y-167843200I939800J0D01*
G01*
X262559800Y-172923200D02*
G75*
G02*
X260680200Y-172923200I-939800J0D01*
G01*
X260680200Y-172923200D02*
G75*
G02*
X262559800Y-172923200I939800J0D01*
G01*
X262559800Y-185623200D02*
G75*
G02*
X260680200Y-185623200I-939800J0D01*
G01*
X260680200Y-185623200D02*
G75*
G02*
X262559800Y-185623200I939800J0D01*
G01*
%TD*%
D11*
%TO.C,TP14*%
X194310000Y-145425000D03*
%TD*%
D12*
%TO.C,SW27*%
X233995000Y-135140000D03*
X238445000Y-135140000D03*
X233995000Y-136640000D03*
X238445000Y-136640000D03*
%TD*%
D11*
%TO.C,TP7*%
X160020000Y-178003200D03*
%TD*%
D13*
%TO.C,R2*%
X213868000Y-191008000D03*
X212218000Y-191008000D03*
%TD*%
D14*
%TO.C,D34*%
X125110000Y-124460000D03*
X125110000Y-123760000D03*
X125110000Y-125160000D03*
X123810000Y-125160000D03*
X123810000Y-123760000D03*
X123810000Y-124460000D03*
%TD*%
D11*
%TO.C,TP23*%
X194310000Y-170825000D03*
%TD*%
D13*
%TO.C,R3*%
X122745000Y-180848000D03*
X121095000Y-180848000D03*
%TD*%
D11*
%TO.C,TP8*%
X160020000Y-167843200D03*
%TD*%
D15*
%TO.C,SW11*%
X240780000Y-73660000D03*
X251980000Y-73660000D03*
D16*
X243880000Y-81160000D03*
X248880000Y-81160000D03*
D17*
X246380000Y-81160000D03*
D16*
X243880000Y-66660000D03*
X248880000Y-66660000D03*
%TD*%
D15*
%TO.C,SW2*%
X159500000Y-73660000D03*
X170700000Y-73660000D03*
D16*
X162600000Y-81160000D03*
X167600000Y-81160000D03*
D17*
X165100000Y-81160000D03*
D16*
X162600000Y-66660000D03*
X167600000Y-66660000D03*
%TD*%
D18*
%TO.C,R11*%
X200152000Y-115253000D03*
X200152000Y-116903000D03*
%TD*%
D19*
%TO.C,U10*%
X242635000Y-147320000D03*
X242635000Y-148590000D03*
X242635000Y-149860000D03*
X242635000Y-151130000D03*
X242635000Y-152400000D03*
X242635000Y-153670000D03*
X242635000Y-154940000D03*
X242635000Y-156210000D03*
X247585000Y-156210000D03*
X247585000Y-154940000D03*
X247585000Y-153670000D03*
X247585000Y-152400000D03*
X247585000Y-151130000D03*
X247585000Y-149860000D03*
X247585000Y-148590000D03*
X247585000Y-147320000D03*
%TD*%
D14*
%TO.C,D14*%
X231140000Y-142890000D03*
X231840000Y-142890000D03*
X230440000Y-142890000D03*
X230440000Y-141590000D03*
X231840000Y-141590000D03*
X231140000Y-141590000D03*
%TD*%
D19*
%TO.C,U6*%
X243905000Y-99695000D03*
X243905000Y-100965000D03*
X243905000Y-102235000D03*
X243905000Y-103505000D03*
X243905000Y-104775000D03*
X243905000Y-106045000D03*
X243905000Y-107315000D03*
X243905000Y-108585000D03*
X248855000Y-108585000D03*
X248855000Y-107315000D03*
X248855000Y-106045000D03*
X248855000Y-104775000D03*
X248855000Y-103505000D03*
X248855000Y-102235000D03*
X248855000Y-100965000D03*
X248855000Y-99695000D03*
%TD*%
D15*
%TO.C,SW7*%
X118860000Y-134620000D03*
X130060000Y-134620000D03*
D16*
X121960000Y-142120000D03*
X126960000Y-142120000D03*
D17*
X124460000Y-142120000D03*
D16*
X121960000Y-127620000D03*
X126960000Y-127620000D03*
%TD*%
D20*
%TO.C,R10*%
X131763000Y-187960000D03*
X133413000Y-187960000D03*
%TD*%
D12*
%TO.C,SW21*%
X173035000Y-147840000D03*
X177485000Y-147840000D03*
X173035000Y-149340000D03*
X177485000Y-149340000D03*
%TD*%
%TO.C,SW20*%
X173035000Y-141490000D03*
X177485000Y-141490000D03*
X173035000Y-142990000D03*
X177485000Y-142990000D03*
%TD*%
D21*
%TO.C,C6*%
X121145000Y-179324000D03*
X122695000Y-179324000D03*
%TD*%
D12*
%TO.C,SW22*%
X173035000Y-154190000D03*
X177485000Y-154190000D03*
X173035000Y-155690000D03*
X177485000Y-155690000D03*
%TD*%
D22*
%TO.C,SW1*%
X225938799Y-184104550D03*
X227938800Y-184104550D03*
X229938799Y-184104550D03*
X231938800Y-184104550D03*
X233938798Y-184104550D03*
X235938799Y-184104550D03*
X225938799Y-186604550D03*
X227938800Y-186604550D03*
X229938799Y-186604550D03*
X231938800Y-186604550D03*
X233938798Y-186604550D03*
X235938799Y-186604550D03*
%TD*%
D14*
%TO.C,D32*%
X231140000Y-161940000D03*
X231840000Y-161940000D03*
X230440000Y-161940000D03*
X230440000Y-160640000D03*
X231840000Y-160640000D03*
X231140000Y-160640000D03*
%TD*%
D23*
%TO.C,C4*%
X137160000Y-180099000D03*
X137160000Y-178549000D03*
%TD*%
D24*
%TO.C,U3*%
X124933000Y-177927000D03*
X124933000Y-179197000D03*
X124933000Y-180467000D03*
X124933000Y-181737000D03*
X130083000Y-181737000D03*
X130083000Y-180467000D03*
X130083000Y-179197000D03*
X130083000Y-177927000D03*
%TD*%
D14*
%TO.C,D22*%
X125110000Y-93980000D03*
X125110000Y-93280000D03*
X125110000Y-94680000D03*
X123810000Y-94680000D03*
X123810000Y-93280000D03*
X123810000Y-93980000D03*
%TD*%
D19*
%TO.C,U1*%
X162625000Y-86995000D03*
X162625000Y-88265000D03*
X162625000Y-89535000D03*
X162625000Y-90805000D03*
X162625000Y-92075000D03*
X162625000Y-93345000D03*
X162625000Y-94615000D03*
X162625000Y-95885000D03*
X167575000Y-95885000D03*
X167575000Y-94615000D03*
X167575000Y-93345000D03*
X167575000Y-92075000D03*
X167575000Y-90805000D03*
X167575000Y-89535000D03*
X167575000Y-88265000D03*
X167575000Y-86995000D03*
%TD*%
D23*
%TO.C,C8*%
X198628000Y-116345000D03*
X198628000Y-114795000D03*
%TD*%
D25*
%TO.C,R6*%
X131572000Y-184721000D03*
X131572000Y-183071000D03*
%TD*%
D15*
%TO.C,SW8*%
X139180000Y-149860000D03*
X150380000Y-149860000D03*
D16*
X142280000Y-157360000D03*
X147280000Y-157360000D03*
D17*
X144780000Y-157360000D03*
D16*
X142280000Y-142860000D03*
X147280000Y-142860000D03*
%TD*%
D26*
%TO.C,N1*%
X276860000Y-193040000D03*
%TD*%
D11*
%TO.C,TP2*%
X251460000Y-167843200D03*
%TD*%
D12*
%TO.C,SW30*%
X233995000Y-154190000D03*
X238445000Y-154190000D03*
X233995000Y-155690000D03*
X238445000Y-155690000D03*
%TD*%
D15*
%TO.C,SW3*%
X179820000Y-88900000D03*
X191020000Y-88900000D03*
D16*
X182920000Y-96400000D03*
X187920000Y-96400000D03*
D17*
X185420000Y-96400000D03*
D16*
X182920000Y-81900000D03*
X187920000Y-81900000D03*
%TD*%
D12*
%TO.C,SW26*%
X233995000Y-128790000D03*
X238445000Y-128790000D03*
X233995000Y-130290000D03*
X238445000Y-130290000D03*
%TD*%
D11*
%TO.C,TP9*%
X194310000Y-132725000D03*
%TD*%
D14*
%TO.C,D31*%
X180340000Y-161940000D03*
X181040000Y-161940000D03*
X179640000Y-161940000D03*
X179640000Y-160640000D03*
X181040000Y-160640000D03*
X180340000Y-160640000D03*
%TD*%
D13*
%TO.C,R1*%
X213868000Y-189484000D03*
X212218000Y-189484000D03*
%TD*%
D14*
%TO.C,D41*%
X267350000Y-139700000D03*
X267350000Y-139000000D03*
X267350000Y-140400000D03*
X266050000Y-140400000D03*
X266050000Y-139000000D03*
X266050000Y-139700000D03*
%TD*%
D17*
%TO.C,RV1*%
X124460000Y-185420000D03*
D16*
X119380000Y-185420000D03*
X114300000Y-185420000D03*
%TD*%
D11*
%TO.C,TP13*%
X194310000Y-142885000D03*
%TD*%
D15*
%TO.C,SW15*%
X281420000Y-134620000D03*
X292620000Y-134620000D03*
D16*
X284520000Y-142120000D03*
X289520000Y-142120000D03*
D17*
X287020000Y-142120000D03*
D16*
X284520000Y-127620000D03*
X289520000Y-127620000D03*
%TD*%
D14*
%TO.C,D28*%
X145430000Y-109220000D03*
X145430000Y-108520000D03*
X145430000Y-109920000D03*
X144130000Y-109920000D03*
X144130000Y-108520000D03*
X144130000Y-109220000D03*
%TD*%
D17*
%TO.C,RV2*%
X185420000Y-185420000D03*
D16*
X180340000Y-185420000D03*
X175260000Y-185420000D03*
%TD*%
D11*
%TO.C,TP11*%
X194310000Y-137805000D03*
%TD*%
D14*
%TO.C,D16*%
X145430000Y-78740000D03*
X145430000Y-78040000D03*
X145430000Y-79440000D03*
X144130000Y-79440000D03*
X144130000Y-78040000D03*
X144130000Y-78740000D03*
%TD*%
D27*
%TO.C,C9*%
X201943000Y-113284000D03*
X200393000Y-113284000D03*
%TD*%
D15*
%TO.C,SW17*%
X281420000Y-165100000D03*
X292620000Y-165100000D03*
D16*
X284520000Y-172600000D03*
X289520000Y-172600000D03*
D17*
X287020000Y-172600000D03*
D16*
X284520000Y-158100000D03*
X289520000Y-158100000D03*
%TD*%
D20*
%TO.C,R9*%
X132271000Y-177800000D03*
X133921000Y-177800000D03*
%TD*%
D14*
%TO.C,D19*%
X180340000Y-149240000D03*
X181040000Y-149240000D03*
X179640000Y-149240000D03*
X179640000Y-147940000D03*
X181040000Y-147940000D03*
X180340000Y-147940000D03*
%TD*%
D11*
%TO.C,TP5*%
X271780000Y-178003200D03*
%TD*%
%TO.C,TP15*%
X194310000Y-147965000D03*
%TD*%
D15*
%TO.C,SW14*%
X261100000Y-119380000D03*
X272300000Y-119380000D03*
D16*
X264200000Y-126880000D03*
X269200000Y-126880000D03*
D17*
X266700000Y-126880000D03*
D16*
X264200000Y-112380000D03*
X269200000Y-112380000D03*
%TD*%
D12*
%TO.C,SW24*%
X173035000Y-166890000D03*
X177485000Y-166890000D03*
X173035000Y-168390000D03*
X177485000Y-168390000D03*
%TD*%
D15*
%TO.C,SW9*%
X118860000Y-165100000D03*
X130060000Y-165100000D03*
D16*
X121960000Y-172600000D03*
X126960000Y-172600000D03*
D17*
X124460000Y-172600000D03*
D16*
X121960000Y-158100000D03*
X126960000Y-158100000D03*
%TD*%
D19*
%TO.C,U8*%
X243905000Y-112395000D03*
X243905000Y-113665000D03*
X243905000Y-114935000D03*
X243905000Y-116205000D03*
X243905000Y-117475000D03*
X243905000Y-118745000D03*
X243905000Y-120015000D03*
X243905000Y-121285000D03*
X248855000Y-121285000D03*
X248855000Y-120015000D03*
X248855000Y-118745000D03*
X248855000Y-117475000D03*
X248855000Y-116205000D03*
X248855000Y-114935000D03*
X248855000Y-113665000D03*
X248855000Y-112395000D03*
%TD*%
D11*
%TO.C,TP6*%
X271780000Y-167843200D03*
%TD*%
D14*
%TO.C,D44*%
X231140000Y-174640000D03*
X231840000Y-174640000D03*
X230440000Y-174640000D03*
X230440000Y-173340000D03*
X231840000Y-173340000D03*
X231140000Y-173340000D03*
%TD*%
%TO.C,D45*%
X192420000Y-118110000D03*
X192420000Y-117410000D03*
X192420000Y-118810000D03*
X191120000Y-118810000D03*
X191120000Y-117410000D03*
X191120000Y-118110000D03*
%TD*%
%TO.C,D1*%
X180340000Y-130190000D03*
X181040000Y-130190000D03*
X179640000Y-130190000D03*
X179640000Y-128890000D03*
X181040000Y-128890000D03*
X180340000Y-128890000D03*
%TD*%
%TO.C,D10*%
X165750000Y-63500000D03*
X165750000Y-62800000D03*
X165750000Y-64200000D03*
X164450000Y-64200000D03*
X164450000Y-62800000D03*
X164450000Y-63500000D03*
%TD*%
D13*
%TO.C,R7*%
X122745000Y-177800000D03*
X121095000Y-177800000D03*
%TD*%
D14*
%TO.C,D27*%
X180990000Y-118110000D03*
X180990000Y-117410000D03*
X180990000Y-118810000D03*
X179690000Y-118810000D03*
X179690000Y-117410000D03*
X179690000Y-118110000D03*
%TD*%
D15*
%TO.C,SW12*%
X261100000Y-88900000D03*
X272300000Y-88900000D03*
D16*
X264200000Y-96400000D03*
X269200000Y-96400000D03*
D17*
X266700000Y-96400000D03*
D16*
X264200000Y-81900000D03*
X269200000Y-81900000D03*
%TD*%
D25*
%TO.C,R8*%
X135636000Y-177609000D03*
X135636000Y-175959000D03*
%TD*%
D14*
%TO.C,D26*%
X231140000Y-155590000D03*
X231840000Y-155590000D03*
X230440000Y-155590000D03*
X230440000Y-154290000D03*
X231840000Y-154290000D03*
X231140000Y-154290000D03*
%TD*%
D15*
%TO.C,SW4*%
X139180000Y-88900000D03*
X150380000Y-88900000D03*
D16*
X142280000Y-96400000D03*
X147280000Y-96400000D03*
D17*
X144780000Y-96400000D03*
D16*
X142280000Y-81900000D03*
X147280000Y-81900000D03*
%TD*%
D14*
%TO.C,D20*%
X231140000Y-149240000D03*
X231840000Y-149240000D03*
X230440000Y-149240000D03*
X230440000Y-147940000D03*
X231840000Y-147940000D03*
X231140000Y-147940000D03*
%TD*%
D11*
%TO.C,TP17*%
X194310000Y-155585000D03*
%TD*%
D14*
%TO.C,D40*%
X145430000Y-139700000D03*
X145430000Y-139000000D03*
X145430000Y-140400000D03*
X144130000Y-140400000D03*
X144130000Y-139000000D03*
X144130000Y-139700000D03*
%TD*%
D19*
%TO.C,U9*%
X163895000Y-147320000D03*
X163895000Y-148590000D03*
X163895000Y-149860000D03*
X163895000Y-151130000D03*
X163895000Y-152400000D03*
X163895000Y-153670000D03*
X163895000Y-154940000D03*
X163895000Y-156210000D03*
X168845000Y-156210000D03*
X168845000Y-154940000D03*
X168845000Y-153670000D03*
X168845000Y-152400000D03*
X168845000Y-151130000D03*
X168845000Y-149860000D03*
X168845000Y-148590000D03*
X168845000Y-147320000D03*
%TD*%
D18*
%TO.C,R15*%
X209804000Y-116777000D03*
X209804000Y-118427000D03*
%TD*%
D28*
%TO.C,J2*%
X154609800Y-178003200D03*
X144703800Y-178003200D03*
X154609800Y-185623200D03*
X154609800Y-167843200D03*
X144703800Y-167843200D03*
%TD*%
D14*
%TO.C,D46*%
X125110000Y-154940000D03*
X125110000Y-154240000D03*
X125110000Y-155640000D03*
X123810000Y-155640000D03*
X123810000Y-154240000D03*
X123810000Y-154940000D03*
%TD*%
D11*
%TO.C,TP19*%
X194310000Y-160665000D03*
%TD*%
%TO.C,TP22*%
X194310000Y-168285000D03*
%TD*%
%TO.C,TP16*%
X194310000Y-150505000D03*
%TD*%
D14*
%TO.C,D5*%
X226710000Y-78740000D03*
X226710000Y-78040000D03*
X226710000Y-79440000D03*
X225410000Y-79440000D03*
X225410000Y-78040000D03*
X225410000Y-78740000D03*
%TD*%
D20*
%TO.C,R4*%
X132271000Y-180848000D03*
X133921000Y-180848000D03*
%TD*%
D11*
%TO.C,TP21*%
X194310000Y-165745000D03*
%TD*%
D14*
%TO.C,D33*%
X184800000Y-118110000D03*
X184800000Y-117410000D03*
X184800000Y-118810000D03*
X183500000Y-118810000D03*
X183500000Y-117410000D03*
X183500000Y-118110000D03*
%TD*%
%TO.C,D25*%
X180340000Y-155590000D03*
X181040000Y-155590000D03*
X179640000Y-155590000D03*
X179640000Y-154290000D03*
X181040000Y-154290000D03*
X180340000Y-154290000D03*
%TD*%
D28*
%TO.C,J1*%
X266369800Y-178003200D03*
X256463800Y-178003200D03*
X266369800Y-185623200D03*
X266369800Y-167843200D03*
X256463800Y-167843200D03*
%TD*%
D25*
%TO.C,R12*%
X209296000Y-113601000D03*
X209296000Y-111951000D03*
%TD*%
D14*
%TO.C,D2*%
X231140000Y-130190000D03*
X231840000Y-130190000D03*
X230440000Y-130190000D03*
X230440000Y-128890000D03*
X231840000Y-128890000D03*
X231140000Y-128890000D03*
%TD*%
%TO.C,D21*%
X192420000Y-114300000D03*
X192420000Y-113600000D03*
X192420000Y-115000000D03*
X191120000Y-115000000D03*
X191120000Y-113600000D03*
X191120000Y-114300000D03*
%TD*%
D12*
%TO.C,SW18*%
X173035000Y-128790000D03*
X177485000Y-128790000D03*
X173035000Y-130290000D03*
X177485000Y-130290000D03*
%TD*%
D19*
%TO.C,U2*%
X162625000Y-99695000D03*
X162625000Y-100965000D03*
X162625000Y-102235000D03*
X162625000Y-103505000D03*
X162625000Y-104775000D03*
X162625000Y-106045000D03*
X162625000Y-107315000D03*
X162625000Y-108585000D03*
X167575000Y-108585000D03*
X167575000Y-107315000D03*
X167575000Y-106045000D03*
X167575000Y-104775000D03*
X167575000Y-103505000D03*
X167575000Y-102235000D03*
X167575000Y-100965000D03*
X167575000Y-99695000D03*
%TD*%
D14*
%TO.C,D37*%
X180340000Y-168290000D03*
X181040000Y-168290000D03*
X179640000Y-168290000D03*
X179640000Y-166990000D03*
X181040000Y-166990000D03*
X180340000Y-166990000D03*
%TD*%
%TO.C,D4*%
X186070000Y-78740000D03*
X186070000Y-78040000D03*
X186070000Y-79440000D03*
X184770000Y-79440000D03*
X184770000Y-78040000D03*
X184770000Y-78740000D03*
%TD*%
D25*
%TO.C,R5*%
X133096000Y-184721000D03*
X133096000Y-183071000D03*
%TD*%
D12*
%TO.C,SW25*%
X173035000Y-173240000D03*
X177485000Y-173240000D03*
X173035000Y-174740000D03*
X177485000Y-174740000D03*
%TD*%
D14*
%TO.C,D15*%
X188610000Y-114300000D03*
X188610000Y-113600000D03*
X188610000Y-115000000D03*
X187310000Y-115000000D03*
X187310000Y-113600000D03*
X187310000Y-114300000D03*
%TD*%
D19*
%TO.C,U4*%
X162625000Y-112395000D03*
X162625000Y-113665000D03*
X162625000Y-114935000D03*
X162625000Y-116205000D03*
X162625000Y-117475000D03*
X162625000Y-118745000D03*
X162625000Y-120015000D03*
X162625000Y-121285000D03*
X167575000Y-121285000D03*
X167575000Y-120015000D03*
X167575000Y-118745000D03*
X167575000Y-117475000D03*
X167575000Y-116205000D03*
X167575000Y-114935000D03*
X167575000Y-113665000D03*
X167575000Y-112395000D03*
%TD*%
D15*
%TO.C,SW13*%
X281420000Y-104140000D03*
X292620000Y-104140000D03*
D16*
X284520000Y-111640000D03*
X289520000Y-111640000D03*
D17*
X287020000Y-111640000D03*
D16*
X284520000Y-97140000D03*
X289520000Y-97140000D03*
%TD*%
D14*
%TO.C,D23*%
X287670000Y-93980000D03*
X287670000Y-93280000D03*
X287670000Y-94680000D03*
X286370000Y-94680000D03*
X286370000Y-93280000D03*
X286370000Y-93980000D03*
%TD*%
D21*
%TO.C,C5*%
X128257000Y-183388000D03*
X129807000Y-183388000D03*
%TD*%
D14*
%TO.C,D11*%
X247030000Y-63500000D03*
X247030000Y-62800000D03*
X247030000Y-64200000D03*
X245730000Y-64200000D03*
X245730000Y-62800000D03*
X245730000Y-63500000D03*
%TD*%
D15*
%TO.C,SW16*%
X261100000Y-149860000D03*
X272300000Y-149860000D03*
D16*
X264200000Y-157360000D03*
X269200000Y-157360000D03*
D17*
X266700000Y-157360000D03*
D16*
X264200000Y-142860000D03*
X269200000Y-142860000D03*
%TD*%
D19*
%TO.C,U5*%
X243905000Y-86995000D03*
X243905000Y-88265000D03*
X243905000Y-89535000D03*
X243905000Y-90805000D03*
X243905000Y-92075000D03*
X243905000Y-93345000D03*
X243905000Y-94615000D03*
X243905000Y-95885000D03*
X248855000Y-95885000D03*
X248855000Y-94615000D03*
X248855000Y-93345000D03*
X248855000Y-92075000D03*
X248855000Y-90805000D03*
X248855000Y-89535000D03*
X248855000Y-88265000D03*
X248855000Y-86995000D03*
%TD*%
D27*
%TO.C,C7*%
X133871000Y-179324000D03*
X132321000Y-179324000D03*
%TD*%
D14*
%TO.C,D47*%
X287670000Y-154940000D03*
X287670000Y-154240000D03*
X287670000Y-155640000D03*
X286370000Y-155640000D03*
X286370000Y-154240000D03*
X286370000Y-154940000D03*
%TD*%
D18*
%TO.C,R14*%
X212344000Y-115507000D03*
X212344000Y-117157000D03*
%TD*%
D14*
%TO.C,D38*%
X231140000Y-168290000D03*
X231840000Y-168290000D03*
X230440000Y-168290000D03*
X230440000Y-166990000D03*
X231840000Y-166990000D03*
X231140000Y-166990000D03*
%TD*%
D11*
%TO.C,TP18*%
X194310000Y-158125000D03*
%TD*%
D18*
%TO.C,R13*%
X201676000Y-115253000D03*
X201676000Y-116903000D03*
%TD*%
D12*
%TO.C,SW32*%
X233995000Y-166890000D03*
X238445000Y-166890000D03*
X233995000Y-168390000D03*
X238445000Y-168390000D03*
%TD*%
D11*
%TO.C,TP3*%
X139700000Y-178003200D03*
%TD*%
D12*
%TO.C,SW31*%
X233995000Y-160540000D03*
X238445000Y-160540000D03*
X233995000Y-162040000D03*
X238445000Y-162040000D03*
%TD*%
D14*
%TO.C,D13*%
X180340000Y-142890000D03*
X181040000Y-142890000D03*
X179640000Y-142890000D03*
X179640000Y-141590000D03*
X181040000Y-141590000D03*
X180340000Y-141590000D03*
%TD*%
%TO.C,D35*%
X287670000Y-124460000D03*
X287670000Y-123760000D03*
X287670000Y-125160000D03*
X286370000Y-125160000D03*
X286370000Y-123760000D03*
X286370000Y-124460000D03*
%TD*%
%TO.C,D7*%
X180340000Y-136540000D03*
X181040000Y-136540000D03*
X179640000Y-136540000D03*
X179640000Y-135240000D03*
X181040000Y-135240000D03*
X180340000Y-135240000D03*
%TD*%
D29*
%TO.C,J3*%
X205740000Y-72975000D03*
X205740000Y-66675000D03*
%TD*%
D15*
%TO.C,SW5*%
X118860000Y-104140000D03*
X130060000Y-104140000D03*
D16*
X121960000Y-111640000D03*
X126960000Y-111640000D03*
D17*
X124460000Y-111640000D03*
D16*
X121960000Y-97140000D03*
X126960000Y-97140000D03*
%TD*%
D15*
%TO.C,SW10*%
X220460000Y-88900000D03*
X231660000Y-88900000D03*
D16*
X223560000Y-96400000D03*
X228560000Y-96400000D03*
D17*
X226060000Y-96400000D03*
D16*
X223560000Y-81900000D03*
X228560000Y-81900000D03*
%TD*%
D14*
%TO.C,D18*%
X227980000Y-114300000D03*
X227980000Y-113600000D03*
X227980000Y-115000000D03*
X226680000Y-115000000D03*
X226680000Y-113600000D03*
X226680000Y-114300000D03*
%TD*%
%TO.C,D42*%
X227980000Y-118110000D03*
X227980000Y-117410000D03*
X227980000Y-118810000D03*
X226680000Y-118810000D03*
X226680000Y-117410000D03*
X226680000Y-118110000D03*
%TD*%
D21*
%TO.C,C3*%
X131813000Y-189484000D03*
X133363000Y-189484000D03*
%TD*%
D14*
%TO.C,D17*%
X267350000Y-78740000D03*
X267350000Y-78040000D03*
X267350000Y-79440000D03*
X266050000Y-79440000D03*
X266050000Y-78040000D03*
X266050000Y-78740000D03*
%TD*%
%TO.C,D24*%
X231790000Y-114300000D03*
X231790000Y-113600000D03*
X231790000Y-115000000D03*
X230490000Y-115000000D03*
X230490000Y-113600000D03*
X230490000Y-114300000D03*
%TD*%
D17*
%TO.C,A1*%
X213360000Y-178445000D03*
D16*
X213360000Y-175905000D03*
X213360000Y-173365000D03*
X213360000Y-170825000D03*
X213360000Y-168285000D03*
X213360000Y-165745000D03*
X213360000Y-163205000D03*
X213360000Y-160665000D03*
X213360000Y-158125000D03*
X213360000Y-155585000D03*
X213360000Y-153045000D03*
X213360000Y-150505000D03*
X213360000Y-147965000D03*
X213360000Y-145425000D03*
X213360000Y-142885000D03*
X213360000Y-140345000D03*
X213360000Y-137805000D03*
X213360000Y-135265000D03*
X213360000Y-132725000D03*
X213360000Y-130185000D03*
X198120000Y-130185000D03*
X198120000Y-132725000D03*
X198120000Y-135265000D03*
X198120000Y-137805000D03*
X198120000Y-140345000D03*
X198120000Y-142885000D03*
X198120000Y-145425000D03*
X198120000Y-147965000D03*
X198120000Y-150505000D03*
X198120000Y-153045000D03*
X198120000Y-155585000D03*
X198120000Y-158125000D03*
X198120000Y-160665000D03*
X198120000Y-163205000D03*
X198120000Y-165745000D03*
X198120000Y-168285000D03*
X198120000Y-170825000D03*
X198120000Y-173365000D03*
X198120000Y-175905000D03*
X198120000Y-178445000D03*
%TD*%
D30*
%TO.C,C1*%
X216408000Y-131813000D03*
X216408000Y-133363000D03*
%TD*%
D14*
%TO.C,D8*%
X231140000Y-136540000D03*
X231840000Y-136540000D03*
X230440000Y-136540000D03*
X230440000Y-135240000D03*
X231840000Y-135240000D03*
X231140000Y-135240000D03*
%TD*%
%TO.C,D43*%
X180340000Y-174640000D03*
X181040000Y-174640000D03*
X179640000Y-174640000D03*
X179640000Y-173340000D03*
X181040000Y-173340000D03*
X180340000Y-173340000D03*
%TD*%
D11*
%TO.C,TP4*%
X139700000Y-167843200D03*
%TD*%
D14*
%TO.C,D29*%
X267350000Y-109220000D03*
X267350000Y-108520000D03*
X267350000Y-109920000D03*
X266050000Y-109920000D03*
X266050000Y-108520000D03*
X266050000Y-109220000D03*
%TD*%
D31*
%TO.C,U7*%
X207677500Y-116770000D03*
X207677500Y-116370000D03*
X207677500Y-115970000D03*
X207677500Y-115570000D03*
X207677500Y-115170000D03*
X207677500Y-114770000D03*
X207677500Y-114370000D03*
D32*
X206940000Y-113632500D03*
X206540000Y-113632500D03*
X206140000Y-113632500D03*
X205740000Y-113632500D03*
X205340000Y-113632500D03*
X204940000Y-113632500D03*
X204540000Y-113632500D03*
D31*
X203802500Y-114370000D03*
X203802500Y-114770000D03*
X203802500Y-115170000D03*
X203802500Y-115570000D03*
X203802500Y-115970000D03*
X203802500Y-116370000D03*
X203802500Y-116770000D03*
D32*
X204540000Y-117507500D03*
X204940000Y-117507500D03*
X205340000Y-117507500D03*
X205740000Y-117507500D03*
X206140000Y-117507500D03*
X206540000Y-117507500D03*
X206940000Y-117507500D03*
D33*
X205740000Y-115570000D03*
%TD*%
D11*
%TO.C,TP1*%
X251460000Y-178003200D03*
%TD*%
D15*
%TO.C,SW6*%
X139180000Y-119380000D03*
X150380000Y-119380000D03*
D16*
X142280000Y-126880000D03*
X147280000Y-126880000D03*
D17*
X144780000Y-126880000D03*
D16*
X142280000Y-112380000D03*
X147280000Y-112380000D03*
%TD*%
D14*
%TO.C,D48*%
X231790000Y-118110000D03*
X231790000Y-117410000D03*
X231790000Y-118810000D03*
X230490000Y-118810000D03*
X230490000Y-117410000D03*
X230490000Y-118110000D03*
%TD*%
D30*
%TO.C,C2*%
X218440000Y-131165000D03*
X218440000Y-132715000D03*
%TD*%
D12*
%TO.C,SW23*%
X173035000Y-160540000D03*
X177485000Y-160540000D03*
X173035000Y-162040000D03*
X177485000Y-162040000D03*
%TD*%
D14*
%TO.C,D6*%
X220360000Y-114300000D03*
X220360000Y-113600000D03*
X220360000Y-115000000D03*
X219060000Y-115000000D03*
X219060000Y-113600000D03*
X219060000Y-114300000D03*
%TD*%
D11*
%TO.C,TP10*%
X194310000Y-135265000D03*
%TD*%
D14*
%TO.C,D12*%
X224170000Y-114300000D03*
X224170000Y-113600000D03*
X224170000Y-115000000D03*
X222870000Y-115000000D03*
X222870000Y-113600000D03*
X222870000Y-114300000D03*
%TD*%
%TO.C,D39*%
X188610000Y-118110000D03*
X188610000Y-117410000D03*
X188610000Y-118810000D03*
X187310000Y-118810000D03*
X187310000Y-117410000D03*
X187310000Y-118110000D03*
%TD*%
D12*
%TO.C,SW19*%
X173035000Y-135140000D03*
X177485000Y-135140000D03*
X173035000Y-136640000D03*
X177485000Y-136640000D03*
%TD*%
D14*
%TO.C,D30*%
X220360000Y-118110000D03*
X220360000Y-117410000D03*
X220360000Y-118810000D03*
X219060000Y-118810000D03*
X219060000Y-117410000D03*
X219060000Y-118110000D03*
%TD*%
%TO.C,D36*%
X224170000Y-118110000D03*
X224170000Y-117410000D03*
X224170000Y-118810000D03*
X222870000Y-118810000D03*
X222870000Y-117410000D03*
X222870000Y-118110000D03*
%TD*%
D12*
%TO.C,SW33*%
X233995000Y-173240000D03*
X238445000Y-173240000D03*
X233995000Y-174740000D03*
X238445000Y-174740000D03*
%TD*%
D11*
%TO.C,TP12*%
X194310000Y-140345000D03*
%TD*%
D12*
%TO.C,SW28*%
X233995000Y-141490000D03*
X238445000Y-141490000D03*
X233995000Y-142990000D03*
X238445000Y-142990000D03*
%TD*%
D14*
%TO.C,D9*%
X184800000Y-114300000D03*
X184800000Y-113600000D03*
X184800000Y-115000000D03*
X183500000Y-115000000D03*
X183500000Y-113600000D03*
X183500000Y-114300000D03*
%TD*%
D12*
%TO.C,SW29*%
X233995000Y-147840000D03*
X238445000Y-147840000D03*
X233995000Y-149340000D03*
X238445000Y-149340000D03*
%TD*%
D11*
%TO.C,TP20*%
X194310000Y-163205000D03*
%TD*%
D14*
%TO.C,D3*%
X180990000Y-114300000D03*
X180990000Y-113600000D03*
X180990000Y-115000000D03*
X179690000Y-115000000D03*
X179690000Y-113600000D03*
X179690000Y-114300000D03*
%TD*%
M02*
